
<svg version="1.1" viewBox="0 0 800 1000" xmlns="http://www.w3.org/2000/svg">
<g fill="none" fill-rule="evenodd">
<g transform="translate(50 907)">
<g fill="#000">
<path d="m22.693 15.032l2.3e-5 -9.6e-6c2.1606-0.90615 5.1216-0.84773 8.2307-0.12339 6.0604 1.4122 11.038 6.5982 10.787 12.111-0.50471 11.135-14.347 19.192-22.734 11.213-4.0131-3.8181-4.7578-8.5288-2.6848-14.153 0.23055-0.62368 0.72944-1.7155 1.2122-2.4703 0.39441-0.6167 0.76486-1.0122 1.1812-1.1473 0.65411-0.21218 1.1388 0.23133 1.3899 1.0848 0.12147 0.41293-0.03733 0.75082-0.38661 1.1648-0.054567 0.064671-0.10586 0.12235-0.19469 0.2202-0.23445 0.25824-0.31328 0.35519-0.35316 0.43869-0.60431 1.2666-1.1141 2.8458-1.5137 4.5705-1.1714 5.057 1.1854 9.481 6.1753 10.955 5.3313 1.5755 11.444-1.4127 13.708-6.4426 2.5684-5.7026 2.2467-10.006-1.8357-13.271-4.6649-3.73-11.39-3.7439-14.824 0.52948l-0.2366 0.29442-0.34788-0.14711c-1.2626-0.53392-1.2412-1.6558-0.33029-2.7751 0.66513-0.8173 1.8063-1.6545 2.7563-2.053z" stroke="#000" stroke-linecap="round"/>
<g transform="translate(22.215 .000813)">
<path d="m7.9749 7.4513c0.084576-0.40553 0.18549-1.0138 0.34023-1.6033 0.33254-1.2775 0.56897-2.5528 0.56512-3.9079-9.6109e-4 -0.595-0.28833-1.5346 0.593-1.7495 0.75446-0.18393 1.557-0.28587 2.1346 0.51855 0.34119 0.47312 0.68142 0.97283 0.90439 1.5246 0.78425 1.9468-0.27103 5.755-1.8616 6.8652-1.2052 0.84098-2.6449 0.065372-2.6757-1.6476"/>
<path d="m3.8038 4.0916c-0.11821 0.96064-0.26815 1.9191-0.34599 2.8852-0.10188 1.2598-0.91304 1.8149-1.7329 2.2692-0.70833 0.39445-1.3763 0.22936-1.5493-0.85316-0.39405-2.4642-0.033638-4.9184 0.19126-7.356 0.10284-1.1246 1.4762-1.3717 2.4124-0.55733 0.82366 0.71799 1.0764 1.6487 1.0245 3.6121"/>
</g>
<path transform="translate(11.366 27.198) rotate(-2) translate(-11.366 -27.198)" d="m20.263 30.305c-3.7554 2.466-8.6763 6.0074-12.389 8.5185-1.079 0.73005-1.9079 1.0902-2.9024 1.9042-0.95097 0.7783-2.037 1.294-2.8313 0.59433-0.81671-0.71956-1.699-1.053-1.0116-2.2897 0.6116-1.1014 1.3293-1.1843 2.6283-1.7381 2.5657-1.094 6.4811-4.0403 8.7585-5.5361 0.69986-0.46048 1.9377-1.4298 2.5431-1.9742 1.5887-1.4297 1.2401-1.8356-0.54998-3.2076-3.155-2.4199-7.0528-5.1248-10.233-7.5215-0.81423-0.61257-1.6521-1.2052-2.4228-1.8545-2.1033-1.7695-1.7286-3.6775 1.1665-4.3971 0.6663-0.16573 1.1598 0.017832 1.5104 0.49929 2.9188 4.0142 8.184 7.1493 12.309 10.108 1.4084 1.0101 2.4911 2.0998 4.4701 2.5498 1.0678 0.2423 0.77818 1.2293 0.8913 2.3915 0.1529 0.74159-0.94355 1.3004-1.9368 1.9528z"/>
</g>
<path d="m66.129 20.732h-3.924v11.268h-1.494v-11.268h-3.924v-1.332h9.342v1.332zm10.052 5.49h-6.048v5.778h-1.494v-12.6h1.494v5.49h6.048v-5.49h1.494v12.6h-1.494v-5.778zm5.2105-6.822h6.858v1.332h-5.364v4.122h4.914v1.332h-4.914v4.482h5.454v1.332h-6.948v-12.6zm15.767 0c0.228-0.036 0.483-0.063 0.765-0.081 0.282-0.018 0.576-0.03 0.882-0.036 0.306-6e-3 0.606-0.012 0.9-0.018 0.294-6e-3 0.567-9e-3 0.819-9e-3 1.008 0 1.881 0.156 2.619 0.468s1.347 0.747 1.827 1.305 0.837 1.227 1.071 2.007 0.351 1.638 0.351 2.574c0 0.852-0.111 1.671-0.333 2.457s-0.573 1.482-1.053 2.088-1.104 1.092-1.872 1.458-1.698 0.549-2.79 0.549c-0.192 0-0.441-3e-3 -0.747-9e-3 -0.306-6e-3 -0.621-0.018-0.945-0.036-0.324-0.018-0.624-0.033-0.9-0.045-0.276-0.012-0.474-0.03-0.594-0.054v-12.618zm3.402 1.188h-0.513c-0.186 0-0.369 0.0059999-0.549 0.018s-0.345 0.024-0.495 0.036c-0.15 0.012-0.267 0.024-0.351 0.036v10.08c0.06 0.012 0.174 0.021 0.342 0.027 0.168 6e-3 0.342 0.012 0.522 0.018s0.354 0.012 0.522 0.018c0.168 6e-3 0.282 9e-3 0.342 9e-3 0.84 0 1.545-0.144 2.115-0.432s1.026-0.675 1.368-1.161 0.585-1.044 0.729-1.674c0.144-0.63 0.216-1.281 0.216-1.953 0-0.588-0.065999-1.179-0.198-1.773s-0.36-1.131-0.684-1.611-0.759-0.873-1.305-1.179-1.233-0.459-2.061-0.459zm8.5045 5.112c0-2.1 0.444-3.711 1.332-4.833 0.888-1.122 2.154-1.683 3.798-1.683 0.888 0 1.656 0.156 2.304 0.468 0.648 0.312 1.185 0.753 1.611 1.323 0.426 0.57 0.741 1.254 0.945 2.052s0.306 1.689 0.306 2.673c0 2.1-0.447 3.711-1.341 4.833-0.894 1.122-2.169 1.683-3.825 1.683-0.876 0-1.635-0.156-2.277-0.468-0.642-0.312-1.176-0.753-1.602-1.323-0.426-0.57-0.741-1.254-0.945-2.052s-0.306-1.689-0.306-2.673zm1.584 0c0 0.696 0.068999 1.356 0.207 1.98 0.138 0.624 0.351 1.173 0.639 1.647 0.288 0.474 0.657 0.852 1.107 1.134 0.45 0.282 0.981 0.423 1.593 0.423 1.116 0 1.992-0.423 2.628-1.269 0.636-0.846 0.954-2.151 0.954-3.915 0-0.684-0.069-1.341-0.207-1.971-0.138-0.63-0.354-1.182-0.648-1.656-0.294-0.474-0.666-0.852-1.116-1.134-0.45-0.282-0.987-0.423-1.611-0.423-1.104 0-1.971 0.423-2.601 1.269-0.63 0.846-0.945 2.151-0.945 3.915zm11.384 0c0-2.1 0.444-3.711 1.332-4.833 0.888-1.122 2.154-1.683 3.798-1.683 0.888 0 1.656 0.156 2.304 0.468s1.185 0.753 1.611 1.323c0.426 0.57 0.741 1.254 0.945 2.052s0.306 1.689 0.306 2.673c0 2.1-0.447 3.711-1.341 4.833-0.894 1.122-2.169 1.683-3.825 1.683-0.876 0-1.635-0.156-2.277-0.468s-1.176-0.753-1.602-1.323c-0.426-0.57-0.741-1.254-0.945-2.052s-0.306-1.689-0.306-2.673zm1.584 0c0 0.696 0.069 1.356 0.207 1.98 0.138 0.624 0.351 1.173 0.639 1.647 0.288 0.474 0.657 0.852 1.107 1.134s0.981 0.423 1.593 0.423c1.116 0 1.992-0.423 2.628-1.269s0.954-2.151 0.954-3.915c0-0.684-0.068999-1.341-0.207-1.971-0.138-0.63-0.354-1.182-0.648-1.656-0.294-0.474-0.666-0.852-1.116-1.134s-0.987-0.423-1.611-0.423c-1.104 0-1.971 0.423-2.601 1.269s-0.945 2.151-0.945 3.915zm11.906-6.3c0.228-0.036 0.483-0.063 0.765-0.081 0.282-0.018 0.576-0.03 0.882-0.036 0.306-6e-3 0.606-0.012 0.9-0.018 0.294-6e-3 0.567-9e-3 0.819-9e-3 1.008 0 1.881 0.156 2.619 0.468s1.347 0.747 1.827 1.305c0.48 0.558 0.837 1.227 1.071 2.007s0.351 1.638 0.351 2.574c0 0.852-0.111 1.671-0.333 2.457s-0.573 1.482-1.053 2.088c-0.48 0.606-1.104 1.092-1.872 1.458s-1.698 0.549-2.79 0.549c-0.192 0-0.441-3e-3 -0.747-9e-3 -0.306-6e-3 -0.621-0.018-0.945-0.036-0.324-0.018-0.624-0.033-0.9-0.045-0.276-0.012-0.474-0.03-0.594-0.054v-12.618zm3.402 1.188h-0.513c-0.186 0-0.369 0.0059999-0.549 0.018s-0.345 0.024-0.495 0.036-0.267 0.024-0.351 0.036v10.08c0.06 0.012 0.174 0.021 0.342 0.027s0.342 0.012 0.522 0.018 0.354 0.012 0.522 0.018 0.282 9e-3 0.342 9e-3c0.84 0 1.545-0.144 2.115-0.432s1.026-0.675 1.368-1.161 0.585-1.044 0.729-1.674c0.144-0.63 0.216-1.281 0.216-1.953 0-0.588-0.065999-1.179-0.198-1.773s-0.36-1.131-0.684-1.611c-0.324-0.48-0.759-0.873-1.305-1.179s-1.233-0.459-2.061-0.459zm16.478 11.412h-7.452v-12.6h1.494v11.268h5.958v1.332zm2.5105-12.6h6.858v1.332h-5.364v4.122h4.914v1.332h-4.914v4.482h5.454v1.332h-6.948v-12.6zm23.219 12.6h-7.452v-12.6h1.494v11.268h5.958v1.332zm2.8525-12.6h1.494v12.6h-1.494v-12.6zm13.148 2.88c0 0.3-0.047999 0.606-0.144 0.918-0.096 0.312-0.24 0.603-0.432 0.873-0.192 0.27-0.438 0.507-0.738 0.711-0.3 0.204-0.654 0.36-1.062 0.468v0.072c0.36 0.06 0.705 0.162 1.035 0.306 0.33 0.144 0.621 0.342 0.873 0.594 0.252 0.252 0.456 0.558 0.612 0.918 0.156 0.36 0.234 0.786 0.234 1.278 0 0.648-0.135 1.209-0.405 1.683-0.27 0.474-0.624 0.861-1.062 1.161-0.438 0.3-0.939 0.522-1.503 0.666-0.564 0.144-1.14 0.216-1.728 0.216h-0.72c-0.276 0-0.564-0.0089999-0.864-0.027-0.3-0.018-0.6-0.042-0.9-0.072-0.3-0.03-0.564-0.075-0.792-0.135v-12.402c0.444-0.072 0.96-0.132 1.548-0.18s1.23-0.072 1.926-0.072c0.468 0 0.945 0.039 1.431 0.117 0.486 0.078 0.927 0.228 1.323 0.45s0.723 0.531 0.981 0.927c0.258 0.396 0.387 0.906 0.387 1.53zm-4.176 8.568c0.384 0 0.756-0.045 1.116-0.135 0.36-0.09 0.678-0.234 0.954-0.432 0.276-0.198 0.495-0.441 0.657-0.729 0.162-0.288 0.243-0.63 0.243-1.026 0-0.492-0.098999-0.888-0.297-1.188s-0.456-0.534-0.774-0.702c-0.318-0.168-0.675-0.282-1.071-0.342s-0.792-0.09-1.188-0.09h-1.566v4.518c0.084001 0.024 0.204 0.042 0.36 0.054 0.156 0.012 0.324 0.024 0.504 0.036 0.18 0.012 0.366 0.021 0.558 0.027s0.36 9e-3 0.504 9e-3zm-0.99-5.904c0.204 0 0.45-0.0059999 0.738-0.018 0.288-0.012 0.528-0.03 0.72-0.054 0.288-0.096 0.558-0.213 0.81-0.351 0.252-0.138 0.477-0.3 0.675-0.486s0.354-0.402 0.468-0.648c0.114-0.246 0.171-0.513 0.171-0.801 0-0.396-0.074999-0.723-0.225-0.981-0.15-0.258-0.351-0.465-0.603-0.621-0.252-0.156-0.54-0.267-0.864-0.333-0.324-0.066-0.654-0.099-0.99-0.099-0.396 0-0.759 0.0089999-1.089 0.027-0.33 0.018-0.579 0.045-0.747 0.081v4.284h0.936zm8.7385-5.418c0.456-0.084 0.981-0.15 1.575-0.198s1.137-0.072 1.629-0.072c0.552 0 1.077 0.059999 1.575 0.18 0.498 0.12 0.936 0.318 1.314 0.594s0.681 0.636 0.909 1.08 0.342 0.984 0.342 1.62c0 0.984-0.27 1.782-0.81 2.394s-1.224 1.02-2.052 1.224l0.864 0.666 3.132 4.986h-1.746l-3.474-5.436-1.764-0.27v5.706h-1.494v-12.474zm3.24 1.026h-0.486c-0.168 0-0.33 0.0059999-0.486 0.018s-0.303 0.024-0.441 0.036-0.249 0.03-0.333 0.054v4.644h1.404c0.828 0 1.512-0.204 2.052-0.612s0.81-1.044 0.81-1.908c0-0.648-0.222-1.182-0.666-1.602s-1.062-0.63-1.854-0.63zm13.652 7.956h-4.644l-1.26 3.492h-1.476l4.77-12.798h0.684l4.788 12.798h-1.566l-1.296-3.492zm-4.158-1.296h3.708l-1.404-3.834-0.45-1.908h-0.018l-0.45 1.944-1.386 3.798zm9.3505-7.686c0.456-0.084 0.981-0.15 1.575-0.198s1.137-0.072 1.629-0.072c0.552 0 1.077 0.059999 1.575 0.18 0.498 0.12 0.936 0.318 1.314 0.594s0.681 0.636 0.909 1.08 0.342 0.984 0.342 1.62c0 0.984-0.27 1.782-0.81 2.394-0.54 0.612-1.224 1.02-2.052 1.224l0.864 0.666 3.132 4.986h-1.746l-3.474-5.436-1.764-0.27v5.706h-1.494v-12.474zm3.24 1.026h-0.486c-0.168 0-0.33 0.0059999-0.486 0.018s-0.303 0.024-0.441 0.036c-0.138 0.012-0.249 0.03-0.333 0.054v4.644h1.404c0.828 0 1.512-0.204 2.052-0.612 0.54-0.408 0.81-1.044 0.81-1.908 0-0.648-0.222-1.182-0.666-1.602s-1.062-0.63-1.854-0.63zm9.8185 6.444l-4.158-7.596h1.746l2.952 5.508 0.306 1.098h0.018l0.324-1.134 2.826-5.472h1.602l-4.122 7.578v5.022h-1.494v-5.004z" fill="#666" opacity=".73972"/>
</g>
<g transform="translate(309 921)" fill="#000" font-family="OpenSans-Regular, Open Sans" font-size="18" letter-spacing=".65455">
<text>
<tspan x="0" y="18">elephant</tspan>
</text>
</g>
<g transform="translate(181 296.85)">
<path d="m253.5 6.2592c-67.808 1.0432-113.71 14.083-137.7 39.12-35.991 37.555-73.546 45.379-73.546 97.018v167.43h101.71v-45.379c27.123 8.3456 46.423 12.518 57.898 12.518 11.475 0 31.296-5.7376 59.463-17.213v50.074h73.546l14.083-133.01c17.734 34.426 30.253 55.812 37.555 64.157s20.343 19.299 39.12 32.861l9.3889-14.083c-29.21-23.994-45.379-46.944-48.509-68.852-4.6944-32.861-7.824-98.583-28.167-129.88-20.343-31.296-59.463-54.768-73.546-54.768h-31.296z" fill="#fff"/>
<path d="m39.32 220.63c0 7.1653-0.44597 14.363 0.095453 21.486 1.0296 13.528 1.7416 27.054 2.2533 40.611 0.25193 6.6364 1.4193 13.312 2.161 19.97 0.10954 0.99052 0.52265 1.9513 0.83091 2.9152 0.51326 1.6055 1.2237 1.5179 2.3269 0.3959 1.3223-1.3457 2.6664-2.1219 4.7883-0.91072 1.5883 0.90759 3.671 1.2018 5.5566 1.2957 6.2843 0.3114 12.509 1.305 18.601 2.5898 15.373 3.2438 30.846 2.0718 46.279 1.5961 3.887-0.12049 8.0697 0.26602 11.932-1.69 2.3363-1.1846 3.3252-2.6821 3.3299-5.0981 0.020342-11.166 0.00313-22.33 0.082935-33.495 0.014083-1.7917-0.26445-3.5725 0.45849-5.4252 0.59463-1.5288-1.1329-2.3816-2.2674-2.9027-9.6408-4.4268-18.678-9.8489-27.343-15.953-3.0748-2.1657-6.0057-4.6052-9.7394-5.7773-1.4647-0.46005-2.873-1.3849-3.7242-2.9199-0.89194-1.6133-3.2251-2.7462-1.2878-5.1216 2.0859-2.56 5.0606-3.7493 7.4391-2.5835 2.0609 1.0109 3.8307 2.3441 3.9762 5.0215 0.13927 2.5819 2.6211 3.3816 4.2093 4.6381 5.7162 4.5207 11.731 8.705 18.244 11.974 6.8836 3.4551 13.814 6.8758 21.098 9.4671 5.1279 1.823 10.181 3.9715 15.44 5.2781 3.707 0.92011 7.5064 1.6618 11.279 2.3895 9.3763 1.8074 18.825 2.8307 28.414 2.6007 6.6113-0.15961 12.924-1.5069 19.264-3.2407 3.4035-0.9295 6.9211-1.5069 10.315-2.5851 7.123-2.2627 13.86-5.3423 20.214-9.2605 0.51482-0.31922 0.80588-0.97957 1.2534-1.4318 2.5772-2.6148 6.3703-2.3018 8.4046 0.72138 1.1705 1.7401 1.8512 3.355 0.55238 5.5989-1.5366 2.6524-2.2017 5.7397-2.2158 8.8709-0.025037 5.1216-0.25037 10.259 0.065721 15.36 0.38807 6.2858 1.3395 12.534 1.0218 18.859-0.021908 0.4491 0.042249 0.98739 0.27854 1.3442 0.49761 0.75267 6.979 2.0233 7.9492 1.7839 0.88255-0.21751 1.8246-0.23629 2.7415-0.26915 17.684-0.63844 35.373 0.1643 53.06-0.16118 2.5068-0.04538 3.2079-0.84343 3.114-3.2564-0.16118-4.1733-1.1439-8.1824-1.9826-12.226-0.507-2.4395-0.74485-4.937-1.0969-7.3796-1.7495-12.152-2.2486-24.428-1.2112-36.649 0.47727-5.6349 1.2565-11.299 2.0546-16.93 0.50543-3.574 4.4315-4.7852 7.8772-2.4614 2.7525 1.8543 3.2219 3.6116 0.66191 6.5425-1.6916 1.9357-2.3707 4.1812-2.7572 6.2796-1.7213 9.3341-3.5224 18.75-2.3441 28.29 0.80118 6.4893 1.3176 13.016 2.2721 19.479 0.77614 5.2405 2.0358 10.412 3.1781 15.593 0.56802 2.5819 2.5741 4.4847 3.5083 6.9681 0.6713 1.7823 0.2222 2.6602-0.94671 3.7649-1.9936 1.884-6.037 2.5021-8.2418 0.94201-2.8292-2.0045-6.2232-1.8167-9.2418-1.8809-14.237-0.30357-28.486-1.039-42.718-0.26445-4.4347 0.24098-8.9304 0.62905-13.077 2.8526-2.729 1.4631-10.066-0.026602-12.252-2.8088-1.2378-1.5789-1.2065-3.15-0.1956-4.7414 2.0264-3.186 2.7572-6.6035 2.8323-10.409 0.18778-9.6721-1.5961-19.225-1.4193-28.888 0.046944-2.5053-1.0844-3.0639-3.1437-1.7166-1.8699 1.2237-4.0669 1.0156-6.0542 1.7948-5.9353 2.3237-12.298 3.2595-18.327 5.3767-2.643 0.9295-5.6208 0.62592-8.4234 1.3974-8.6143 2.3722-17.491 1.5226-26.192 1.0171-6.2107-0.36147-12.467-1.5805-18.653-2.8636-6.2984-1.3066-12.459-3.0076-18.61-4.8118-0.43345-0.12675-0.85752-0.29105-1.2753-0.46162-1.8527-0.7558-3.5474-2.9606-5.5754 0.065722-1.1486 1.7119-2.74 2.7713-3.272 5.2343-1.7354 8.0509-0.73546 16.124-0.89664 24.173-0.048509 2.4301-1.3395 4.5489-1.0453 6.9837 0.24724 2.0343-0.2535 4.0043 0.64314 6.1544 1.1783 2.8229-3.9152 6.7709-7.1903 5.7256-3.1813-1.014-6.3046-0.8982-9.4843-0.1111-0.79805 0.19717-1.6587 0.17056-2.4927 0.18308-7.353 0.11736-14.761-0.29731-22.05 0.45692-8.7958 0.91228-17.337-0.82309-25.876-1.834-4.9119-0.58054-9.971-1.5179-14.92-2.5428-2.9669-0.6134-6.2248-0.82935-9.3075 0.42719-1.2409 0.507-2.6414 0.71042-3.8698-0.47101-0.59776-0.57585-1.6603-0.77771-2.3488-0.25506-0.76519 0.58367-0.42876 1.4991 0.0031296 2.2565 0.090759 0.15961 0.30044 0.30044 0.30357 0.45223 0.075111 4.1984 1.1642 7.9852 3.5709 11.555 1.2972 1.9247-0.52108 3.5349-2.2345 4.3783-3.2219 1.5867-7.7599-1.3144-7.7395-4.8885 0.028166-5.2468-1.2487-10.307-1.9325-15.454-0.86064-6.483-1.7448-12.982-2.6696-19.447-1.2831-8.9757-0.3067-17.987-1.2299-26.904-0.86534-8.3576 0.076676-16.786-0.99991-25.035-1.1908-9.126-1.1282-18.225-0.61497-27.275 0.64157-11.334 0.47257-22.677 1.1079-33.989 0.4804-8.5767 1.0719-17.2 2.2815-25.68 0.93576-6.5691 1.9826-13.202 3.7133-19.709 1.1861-4.4581 2.0076-9.0524 3.7274-13.338 2.089-5.203 4.3251-10.343 7.3828-15.13 2.0859-3.2626 3.4332-6.9634 5.6568-10.228 7.0698-10.378 15.135-19.787 24.627-28.076 5.6615-4.9417 11.068-10.209 16.822-15.053 2.5663-2.1626 5.1654-4.322 8.0603-6.1857 3.5083-2.258 6.76-5.0747 10.109-7.666 5.311-4.1108 11.14-7.4485 16.966-10.714 6.9446-3.8917 14.01-7.6754 21.344-10.738 6.4893-2.7087 12.964-5.5441 19.854-7.3452 4.5645-1.1924 9.1635-2.391 13.659-3.8901 2.2017-0.73546 4.5677-0.95297 6.7944-1.2002 3.8666-0.42719 7.6504-1.474 11.592-1.4287 8.0682 0.092324 16.132-0.69478 24.12-1.4819 10.794-1.0641 21.577-1.1564 32.298-0.46788 8.7833 0.5649 17.603 1.6008 26.103 4.8008 4.0779 1.5366 8.5282 2.5366 12.741 3.9292 7.8632 2.5991 15.6 5.5379 22.651 10.063 5.9838 3.8385 11.368 8.3451 16.119 13.59 5.6396 6.2264 11.537 12.274 16.587 18.958 4.3361 5.7382 8.2246 11.991 11.193 18.526 2.0687 4.552 3.2423 9.6862 5.1999 14.332 2.3738 5.6271 3.3377 11.658 5.818 17.202 1.6759 3.7477 2.2158 7.8788 2.5851 11.817 0.54142 5.7757 1.1955 11.564 1.6399 17.358 0.66974 8.7082 0.72764 17.43 1.3019 26.123 0.39746 6.0167 0.82622 12.166 2.1892 18.003 1.5304 6.5503 2.7854 13.184 4.9917 19.629 4.3173 12.617 10.963 23.934 18.357 34.825 4.6929 6.9149 10.65 12.877 16.779 18.591 1.9435 1.8105 3.6538 4.2391 6.4861 4.4112 2.028 0.12206 2.8417 1.003 3.6084 2.5945 0.98896 2.053 0.12675 2.9278-1.7823 3.1171-4.4503 0.43971-7.8522-1.9717-10.702-4.7946-6.9321-6.8664-13.615-13.966-19.355-21.929-2.6805-3.7196-4.3752-7.9539-7.0886-11.648-4.9824-6.7834-8.1198-14.634-11.224-22.339-1.7166-4.2594-2.571-9.043-3.7571-13.604-1.8809-7.2357-3.0107-14.601-4.2328-21.956-0.045379-0.27541-0.086064-0.55551-0.08137-0.83248 0.13301-7.2466-1.4381-14.373-1.4115-21.635 0.018778-5.0794-0.63688-10.182-1.0954-15.247-0.63531-7.0416-1.9059-14.06-3.4254-20.973-0.69634-3.1672-2.3097-6.1732-3.3456-9.3247-1.9967-6.0808-4.261-12.072-6.35-18.124-1.5069-4.3643-4.297-8.0275-6.3844-12.066-3.4598-6.688-8.1511-12.52-13.033-18.075-4.8431-5.5113-9.9052-10.891-15.607-15.661-5.4142-4.5317-11.245-8.2528-17.523-11.328-4.7492-2.3253-9.8661-3.7305-14.827-5.5206-5.6396-2.0374-11.576-2.8276-17.214-4.9119-2.729-1.0093-6.0965-1.3676-9.2527-1.4318-4.0043-0.082935-8.0103-0.32392-12.007-0.21907-3.549 0.093889-6.9681-0.94671-10.523-0.7871-7.6034 0.34269-15.23 0.65409-22.788 1.3082-4.8055 0.41624-9.7488-0.082935-14.37 1.0015-6.1732 1.4474-12.542 0.29262-18.726 2.6477-4.6725 1.7808-10.027 2.0734-14.811 3.8839-6.6723 2.524-13.515 4.5645-19.939 7.8147-9.4608 4.7899-19.396 8.7754-28.143 14.769-4.9933 3.4222-9.9678 6.9775-14.797 10.694-8.7488 6.7349-17.066 13.955-25.234 21.358-5.4987 4.9839-11.043 9.9491-15.758 15.715-3.416 4.1749-6.7788 8.4077-9.6502 12.98-1.848 2.9403-3.7634 5.8477-5.53 8.8224-2.1907 3.6914-4.0544 7.6144-5.6787 11.592-1.8981 4.6569-3.2532 9.5359-5.106 14.215-0.97018 2.4505-0.97957 5.0747-1.4162 7.533-1.111 6.2342-2.0593 12.536-2.837 18.851-1.3958 11.343-1.5758 22.715-2.3112 34.075-0.58837 9.0994-0.47727 18.191-0.5915 27.278" fill="#000"/>
<path d="m283.75 229.46c-7.461 0.41624-14.778-0.90602-21.529-3.7008-4.6131-1.9106-8.6221-5.4534-12.634-8.6049-7.3358-5.7648-13.633-12.609-19.253-20.031-4.5552-6.0136-8.4922-12.384-11.447-19.432-1.8308-4.3674-3.6538-8.7582-4.9025-13.265-1.0641-3.8291-1.6916-7.8366-2.7666-11.691-1.5335-5.4972-1.1392-11.179-1.5679-16.739-0.34582-4.4941-1.5523-9.1964 0.22533-13.828 0.62905-1.6415 0.086065-3.7008 0.28167-5.5472 0.74015-6.9618 1.1955-13.949 3.0091-20.781 0.70104-2.6398 0.91228-5.4768 1.219-8.2168 0.28949-2.5898 1.4553-4.9683 1.4537-7.5768 0-1.0609 0.86064-1.2174 1.5273-1.7119 2.1234-1.5758 4.4973-1.2722 6.6551-0.68069 3.0889 0.84813 3.8009 5.2531 1.1673 7.231-2.632 1.9795-3.2282 4.7476-3.8964 7.6206-0.99991 4.3173-2.186 8.5924-3.0936 12.927-0.54299 2.5945-0.87473 5.3-1.0828 7.8929-0.58367 7.2904-2.1078 14.551-1.3645 21.918 0.74954 7.4375 1.1204 14.96 2.5506 22.269 1.1032 5.6364 3.3925 11.077 5.516 16.462 2.1454 5.4424 4.8838 10.594 8.1871 15.492 5.8852 8.7269 12.75 16.495 20.898 23.139 5.1842 4.2297 10.852 7.7787 17.51 8.7457 5.9948 0.87003 11.933 2.0076 18.268 0.99209 3.79-0.60871 7.63-1.4631 11.486-1.9498 2.6664-0.338 5.2515-1.546 7.8037-2.5459 7.522-2.9481 11.783-8.9695 14.889-16.047 1.1752-2.6774 3.1844-4.7899 4.9917-7.015 1.1627-1.4318 2.9309-1.4521 4.5473-0.81996 1.5241 0.59776 1.8637 1.8825 1.895 3.5114 0.035991 1.8387-0.21438 3.5568-1.3536 4.9151-4.189 4.998-7.1762 10.885-11.893 15.51-4.261 4.1796-9.2574 6.7881-14.971 8.1386-4.6428 1.1001-9.3122 2.0859-13.977 3.0889-2.7588 0.59306-5.566 0.23472-8.3498 0.33017" fill="#000"/>
<path d="m0.05336 147.52c1.0437-3.0123 2.1813-6.8007 4.2578-10.16 4.7116-7.6222 10.833-14.016 17.84-19.537 3.2423-2.5553 6.0996-5.4627 9.0555-8.3091 1.5585-1.5022 3.5083-3.1108 6.0402-3.1437 3.6945-0.048509 5.782 1.4459 6.4533 5.5598 0.53204 3.2704-2.3363 6.2029-5.6396 5.663-3.8776-0.63375-6.5268 1.1673-9.3153 3.4238-4.7132 3.8166-9.115 7.9164-13.39 12.221-4.5129 4.5473-6.7772 10.309-9.6517 15.764-0.28949 0.55081-0.67756 1.0719-0.88725 1.6024-0.52108 1.3176-1.2738 2.064-2.7056 1.7448-1.3661-0.30514-1.5977-1.6118-2.0311-2.6696-0.16274-0.39746-0.026602-0.91854-0.026602-2.1594" fill="#000"/>
<path d="m361.01 144.4c0.14709 1.2425-0.19873 2.5694-0.90446 3.3565-1.521 1.6963-2.2627 3.7571-3.2704 5.6896-0.98114 1.8825-2.2408 3.3049-4.5223 2.7102-2.1266-0.55551-2.5647-2.2408-2.5178-4.3126 0.054769-2.3738 0.18934-4.7414-0.43032-7.1449-0.67913-2.6367 2.6977-5.4847 5.843-5.2405 2.7212 0.21281 5.7648 2.8057 5.8023 4.9417" fill="#000"/>
</g>
</g>
</svg>
