
<svg version="1.1" viewBox="0 0 800 1000" xmlns="http://www.w3.org/2000/svg">

<g fill="none" fill-rule="evenodd">
<g transform="translate(507 672)">
<g fill-rule="nonzero">
<path d="m110.81 8.2565c0.092027 0.30697-0.002399 0.56223-0.2388 0.83714-0.02565 0.029828-0.049139 0.055864-0.091582 0.10174-0.071868 0.077674-0.093758 0.1043-0.087589 0.09161-0.23609 0.48554-0.44529 1.1094-0.61364 1.8223-0.45698 1.9357 0.46048 3.5584 2.3561 4.108 2.0577 0.59664 4.4714-0.53021 5.3637-2.4748 1.0563-2.3012 0.86056-3.8657-0.66844-5.0653-1.8713-1.4682-4.4744-1.407-5.76 0.16269l-0.27672 0.33787c-5.44e-4 0.02278 0.008565 0.05047 0.017054 0.07878zm-0.70646-1.9871c0.31751-0.38281 0.84934-0.76977 1.3139-0.96096 0.95962-0.3949 2.2604-0.40231 3.7137-0.070079 2.7992 0.64001 4.9749 2.9822 4.8621 5.4186-0.23528 5.0929-6.5697 8.3676-10.264 4.9193-1.7884-1.6695-2.1784-3.7742-1.2328-6.2914 0.12487-0.33145 0.35175-0.79491 0.55045-1.0998 0.22025-0.33791 0.43128-0.54379 0.70097-0.62963 0.027825-0.0088565 0.055317-0.016262 0.082454-0.022257-0.1856-0.36371-0.085327-0.83206 0.27285-1.2639z" fill="#000"/>
<path d="m116 2.3638c0.035222-0.12972 0.077249-0.3243 0.14169-0.51286 0.13849-0.40866 0.23695-0.81661 0.23535-1.2501-4e-4 -0.19033-0.12008-0.49089 0.24696-0.55965 0.3142-0.058835 0.64841-0.091443 0.88896 0.16587 0.14209 0.15134 0.28378 0.31119 0.37664 0.4877 0.32661 0.62273-0.11287 1.8409-0.77529 2.1961-0.50192 0.26901-1.1015 0.020911-1.1143-0.52704" fill="#000"/>
<path d="m113.6 1.3002c-0.04964 0.30525-0.1126 0.6098-0.14529 0.91681-0.042779 0.40031-0.3834 0.5767-0.72765 0.72106-0.29744 0.12534-0.57792 0.07288-0.65057-0.2711-0.16547-0.78302-0.014125-1.5629 0.080312-2.3374 0.043183-0.35736 0.6199-0.43587 1.013-0.1771 0.34587 0.22815 0.45201 0.52389 0.43021 1.1478" fill="#000"/>
<path transform="translate(108.5 10.5) rotate(-2) translate(-108.5 -10.5)" d="m112.19 11.682c-1.5577 0.93835-3.599 2.2859-5.1392 3.2414-0.44758 0.27779-0.7914 0.41485-1.2039 0.72457-0.39446 0.29615-0.84494 0.49237-1.1744 0.22615-0.33878-0.2738-0.70476-0.40069-0.41961-0.87126 0.2537-0.41908 0.5514-0.45064 1.0902-0.66138 1.0643-0.41629 2.6884-1.5374 3.6331-2.1066 0.2903-0.17522 0.80376-0.54405 1.0549-0.7512 0.65899-0.54401 0.51439-0.69848-0.22813-1.2205-1.3087-0.92079-2.9255-1.95-4.2445-2.862-0.33774-0.23309-0.68528-0.4586-1.005-0.70566-0.87246-0.67333-0.71704-1.3993 0.48389-1.6731 0.27638-0.063062 0.48109 0.0067852 0.6265 0.18998 1.2107 1.5275 3.3948 2.7204 5.1057 3.8463 0.58422 0.38436 1.0333 0.799 1.8542 0.97023 0.44293 0.092199 0.32279 0.46778 0.36971 0.91001 0.063424 0.28218-0.39139 0.4948-0.80338 0.74306z" fill="#000"/>
<path d="m4.8056 7.7127h-2.0185v5.1878h-0.76852v-5.1878h-2.0185v-0.61326h4.8056v0.61326zm5.171 2.5276h-3.1111v2.6602h-0.76852v-5.8011h0.76852v2.5276h3.1111v-2.5276h0.76852v5.8011h-0.76852v-2.6602zm2.6803-3.1409h3.5278v0.61326h-2.7593v1.8978h2.5278v0.61326h-2.5278v2.0635h2.8056v0.61326h-3.5741v-5.8011zm8.1106 0c0.11728-0.016575 0.24846-0.029005 0.39352-0.037293 0.14506-0.0082873 0.2963-0.013812 0.4537-0.016575s0.31173-0.0055249 0.46296-0.0082873c0.15124-0.0027624 0.29167-0.0041436 0.4213-0.0041436 0.51852 0 0.96759 0.071822 1.3472 0.21547 0.37963 0.14365 0.6929 0.34392 0.93981 0.60083 0.24691 0.25691 0.43056 0.56492 0.55093 0.92403 0.12037 0.35912 0.18056 0.75414 0.18056 1.1851 0 0.39227-0.057098 0.76934-0.1713 1.1312-0.1142 0.36188-0.29475 0.68232-0.54167 0.96133s-0.5679 0.50276-0.96296 0.67127-0.87345 0.25276-1.4352 0.25276c-0.098766 0-0.22685-0.0013812-0.38426-0.0041436-0.15741-0.0027625-0.31944-0.0082873-0.48611-0.016575s-0.32099-0.015193-0.46296-0.020718c-0.14198-0.005525-0.24383-0.013812-0.30556-0.024862v-5.8094zm1.75 0.54696h-0.26389c-0.095679 0-0.18981 0.0027624-0.28241 0.0082873-0.092593 0.0055249-0.17747 0.01105-0.25463 0.016575-0.077161 0.0055249-0.13735 0.01105-0.18056 0.016575v4.6409c0.030864 0.0055249 0.089506 0.0096685 0.17593 0.012431 0.08642 0.0027625 0.17593 0.0055249 0.26852 0.0082873 0.092593 0.0027624 0.1821 0.0055249 0.26852 0.0082873 0.08642 0.0027624 0.14506 0.0041437 0.17593 0.0041437 0.4321 0 0.79475-0.066298 1.088-0.1989 0.29321-0.1326 0.52778-0.31077 0.7037-0.53453s0.30093-0.48066 0.375-0.77072 0.11111-0.58978 0.11111-0.89917c0-0.27072-0.03395-0.54282-0.10185-0.8163-0.067902-0.27348-0.18518-0.52072-0.35185-0.74171s-0.39043-0.40193-0.6713-0.54282c-0.28087-0.14088-0.63426-0.21133-1.0602-0.21133zm4.3747 2.3536c0-0.96686 0.22839-1.7086 0.68519-2.2251 0.45679-0.51658 1.108-0.77486 1.9537-0.77486 0.45679 0 0.85185 0.071822 1.1852 0.21547 0.33333 0.14365 0.60957 0.34668 0.8287 0.60912 0.21914 0.26243 0.38117 0.57735 0.48611 0.94475 0.10494 0.36741 0.15741 0.77762 0.15741 1.2307 0 0.96686-0.22994 1.7086-0.68981 2.2251-0.45988 0.51658-1.1157 0.77486-1.9676 0.77486-0.45062 0-0.84105-0.071822-1.1713-0.21547-0.33025-0.14365-0.60494-0.34668-0.82407-0.60912-0.21914-0.26243-0.38117-0.57735-0.48611-0.94475-0.10494-0.36741-0.15741-0.77762-0.15741-1.2307zm0.81481 0c0 0.32044 0.035493 0.62431 0.10648 0.9116 0.070988 0.28729 0.18055 0.54005 0.3287 0.75829 0.14815 0.21823 0.33796 0.39226 0.56944 0.5221 0.23148 0.12983 0.50463 0.19475 0.81944 0.19475 0.57408 0 1.0247-0.19475 1.3519-0.58425 0.32716-0.3895 0.49074-0.99033 0.49074-1.8025 0-0.31492-0.035494-0.6174-0.10648-0.90746-0.070988-0.29006-0.1821-0.5442-0.33333-0.76243-0.15124-0.21823-0.34259-0.39226-0.57407-0.5221-0.23148-0.12983-0.50771-0.19475-0.8287-0.19475-0.5679 0-1.0139 0.19475-1.338 0.58425-0.32408 0.3895-0.48611 0.99033-0.48611 1.8025zm5.8562 0c0-0.96686 0.22839-1.7086 0.68519-2.2251 0.45679-0.51658 1.108-0.77486 1.9537-0.77486 0.45679 0 0.85185 0.071822 1.1852 0.21547 0.33333 0.14365 0.60957 0.34668 0.8287 0.60912 0.21914 0.26243 0.38117 0.57735 0.48611 0.94475 0.10494 0.36741 0.15741 0.77762 0.15741 1.2307 0 0.96686-0.22994 1.7086-0.68981 2.2251-0.45988 0.51658-1.1157 0.77486-1.9676 0.77486-0.45062 0-0.84105-0.071822-1.1713-0.21547-0.33025-0.14365-0.60494-0.34668-0.82407-0.60912-0.21914-0.26243-0.38117-0.57735-0.48611-0.94475-0.10494-0.36741-0.15741-0.77762-0.15741-1.2307zm0.81481 0c0 0.32044 0.035494 0.62431 0.10648 0.9116 0.070988 0.28729 0.18056 0.54005 0.3287 0.75829 0.14815 0.21823 0.33796 0.39226 0.56944 0.5221 0.23148 0.12983 0.50463 0.19475 0.81944 0.19475 0.57408 0 1.0247-0.19475 1.3519-0.58425s0.49074-0.99033 0.49074-1.8025c0-0.31492-0.035493-0.6174-0.10648-0.90746-0.070988-0.29006-0.1821-0.5442-0.33333-0.76243-0.15124-0.21823-0.34259-0.39226-0.57407-0.5221-0.23148-0.12983-0.50771-0.19475-0.8287-0.19475-0.5679 0-1.0139 0.19475-1.338 0.58425-0.32408 0.3895-0.48611 0.99033-0.48611 1.8025zm6.1247-2.9006c0.11728-0.016575 0.24846-0.029005 0.39352-0.037293 0.14506-0.0082873 0.2963-0.013812 0.4537-0.016575 0.15741-0.0027624 0.31173-0.0055249 0.46296-0.0082873 0.15124-0.0027624 0.29167-0.0041436 0.4213-0.0041436 0.51852 0 0.96759 0.071822 1.3472 0.21547 0.37963 0.14365 0.6929 0.34392 0.93981 0.60083 0.24691 0.25691 0.43056 0.56492 0.55093 0.92403 0.12037 0.35912 0.18056 0.75414 0.18056 1.1851 0 0.39227-0.057098 0.76934-0.1713 1.1312-0.1142 0.36188-0.29475 0.68232-0.54167 0.96133-0.24692 0.27901-0.5679 0.50276-0.96296 0.67127s-0.87345 0.25276-1.4352 0.25276c-0.098766 0-0.22685-0.0013812-0.38426-0.0041436-0.15741-0.0027625-0.31944-0.0082873-0.48611-0.016575-0.16667-0.0082873-0.32099-0.015193-0.46296-0.020718-0.14198-0.005525-0.24383-0.013812-0.30556-0.024862v-5.8094zm1.75 0.54696h-0.26389c-0.09568 0-0.18981 0.0027624-0.28241 0.0082873s-0.17747 0.01105-0.25463 0.016575-0.13735 0.01105-0.18056 0.016575v4.6409c0.030864 0.0055249 0.089506 0.0096685 0.17593 0.012431 0.08642 0.0027625 0.17593 0.0055249 0.26852 0.0082873s0.1821 0.0055249 0.26852 0.0082873c0.08642 0.0027624 0.14506 0.0041437 0.17593 0.0041437 0.4321 0 0.79475-0.066298 1.088-0.1989 0.29321-0.1326 0.52778-0.31077 0.7037-0.53453 0.17593-0.22376 0.30093-0.48066 0.375-0.77072s0.11111-0.58978 0.11111-0.89917c0-0.27072-0.03395-0.54282-0.10185-0.8163-0.067902-0.27348-0.18518-0.52072-0.35185-0.74171-0.16667-0.221-0.39043-0.40193-0.6713-0.54282-0.28087-0.14088-0.63426-0.21133-1.0602-0.21133zm8.4766 5.2541h-3.8333v-5.8011h0.76852v5.1878h3.0648v0.61326zm1.2914-5.8011h3.5278v0.61326h-2.7593v1.8978h2.5278v0.61326h-2.5278v2.0635h2.8056v0.61326h-3.5741v-5.8011zm11.944 5.8011h-3.8333v-5.8011h0.76852v5.1878h3.0648v0.61326zm1.4673-5.8011h0.76852v5.8011h-0.76852v-5.8011zm6.7636 1.326c0 0.13812-0.024691 0.279-0.074074 0.42265-0.049383 0.14365-0.12346 0.27762-0.22222 0.40193-0.098766 0.12431-0.22531 0.23342-0.37963 0.32735-0.15432 0.093923-0.33642 0.16575-0.5463 0.21547v0.033149c0.18519 0.027624 0.36265 0.074585 0.53241 0.14088 0.16975 0.066299 0.31944 0.15746 0.44907 0.27348 0.12963 0.11602 0.23457 0.25691 0.31481 0.42265 0.080248 0.16575 0.12037 0.36188 0.12037 0.5884 0 0.29834-0.069443 0.55663-0.20833 0.77486-0.13889 0.21823-0.32099 0.39641-0.5463 0.53453-0.22531 0.13812-0.48302 0.24033-0.77315 0.30663-0.29012 0.066299-0.58642 0.099448-0.88889 0.099448h-0.37037c-0.14198 0-0.29012-0.0041436-0.44444-0.012431-0.15432-0.0082873-0.30864-0.019337-0.46296-0.033149-0.15432-0.013812-0.29012-0.03453-0.40741-0.062155v-5.7099c0.2284-0.033149 0.49383-0.060773 0.7963-0.082873 0.30247-0.0221 0.63271-0.033149 0.99074-0.033149 0.24074 0 0.48611 0.017956 0.73611 0.053867 0.25 0.035912 0.47685 0.10497 0.68056 0.20718 0.2037 0.10221 0.37191 0.24447 0.50463 0.4268 0.13272 0.18232 0.19907 0.41713 0.19907 0.70442zm-2.1481 3.9448c0.19753 0 0.38889-0.020718 0.57407-0.062155 0.18519-0.041437 0.34876-0.10773 0.49074-0.1989 0.14198-0.091161 0.25463-0.20304 0.33796-0.33564 0.083334-0.1326 0.125-0.29005 0.125-0.47238 0-0.22652-0.050925-0.40884-0.15278-0.54696-0.10185-0.13812-0.23457-0.24586-0.39815-0.3232-0.16358-0.077348-0.34722-0.12983-0.55093-0.15746-0.2037-0.027624-0.40741-0.041436-0.61111-0.041436h-0.80556v2.0801c0.04321 0.01105 0.10494 0.019337 0.18519 0.024862 0.080247 0.0055249 0.16667 0.01105 0.25926 0.016575 0.092593 0.0055249 0.18827 0.0096685 0.28704 0.012431 0.098766 0.0027624 0.18519 0.0041436 0.25926 0.0041436zm-0.50926-2.7182c0.10494 0 0.23148-0.0027624 0.37963-0.0082873 0.14815-0.0055249 0.2716-0.013812 0.37037-0.024862 0.14815-0.044199 0.28704-0.098066 0.41667-0.1616 0.12963-0.063536 0.24537-0.13812 0.34722-0.22376 0.10185-0.085636 0.1821-0.18508 0.24074-0.29834 0.058642-0.11326 0.087963-0.23619 0.087963-0.36878 0-0.18232-0.03858-0.33287-0.11574-0.45166-0.07716-0.11879-0.18055-0.21409-0.31019-0.28591-0.12963-0.071824-0.27778-0.12293-0.44444-0.15331-0.16667-0.030387-0.33642-0.04558-0.50926-0.04558-0.2037 0-0.39043 0.0041436-0.56019 0.012431-0.16975 0.0082873-0.29784 0.020718-0.38426 0.037293v1.9724h0.48148zm4.4951-2.4945c0.23457-0.038674 0.50463-0.069061 0.81019-0.09116s0.58488-0.033149 0.83796-0.033149c0.28395 0 0.55401 0.027624 0.81019 0.082873 0.25617 0.055249 0.48148 0.14641 0.67593 0.27348 0.19445 0.12707 0.35031 0.29282 0.46759 0.49724 0.11728 0.20442 0.17593 0.45304 0.17593 0.74586 0 0.45304-0.13889 0.82044-0.41667 1.1022-0.27778 0.28177-0.62963 0.46961-1.0556 0.56354l0.44444 0.30663 1.6111 2.2956h-0.89815l-1.787-2.5028-0.90741-0.12431v2.6271h-0.76852v-5.7431zm1.6667 0.47238h-0.25c-0.08642 0-0.16975 0.0027624-0.25 0.0082873-0.080247 0.0055249-0.15586 0.01105-0.22685 0.016575-0.070988 0.0055249-0.12809 0.013812-0.1713 0.024862v2.1381h0.72222c0.42593 0 0.77778-0.093922 1.0556-0.28177 0.27778-0.18785 0.41667-0.48066 0.41667-0.87845 0-0.29834-0.1142-0.5442-0.34259-0.73757-0.2284-0.19337-0.54629-0.29006-0.9537-0.29006zm7.0229 3.663h-2.3889l-0.64815 1.6077h-0.75926l2.4537-5.8923h0.35185l2.463 5.8923h-0.80556l-0.66667-1.6077zm-2.1389-0.59669h1.9074l-0.72222-1.7652-0.23148-0.87845h-0.0092592l-0.23148 0.89503-0.71296 1.7486zm4.8099-3.5387c0.23457-0.038674 0.50463-0.069061 0.81019-0.09116s0.58488-0.033149 0.83796-0.033149c0.28395 0 0.55401 0.027624 0.81019 0.082873 0.25617 0.055249 0.48148 0.14641 0.67593 0.27348s0.35031 0.29282 0.46759 0.49724 0.17593 0.45304 0.17593 0.74586c0 0.45304-0.13889 0.82044-0.41667 1.1022-0.27778 0.28177-0.62963 0.46961-1.0556 0.56354l0.44444 0.30663 1.6111 2.2956h-0.89815l-1.787-2.5028-0.90741-0.12431v2.6271h-0.76852v-5.7431zm1.6667 0.47238h-0.25c-0.08642 0-0.16975 0.0027624-0.25 0.0082873-0.080247 0.0055249-0.15586 0.01105-0.22685 0.016575-0.070988 0.0055249-0.12809 0.013812-0.1713 0.024862v2.1381h0.72222c0.42593 0 0.77778-0.093922 1.0556-0.28177 0.27778-0.18785 0.41667-0.48066 0.41667-0.87845 0-0.29834-0.1142-0.5442-0.34259-0.73757-0.2284-0.19337-0.54629-0.29006-0.9537-0.29006zm5.0507 2.9669l-2.1389-3.4972h0.89815l1.5185 2.5359 0.15741 0.50552h0.0092593l0.16667-0.5221 1.4537-2.5193h0.82407l-2.1204 3.489v2.3122h-0.76852v-2.3039z" fill="#666" opacity=".59528"/>
</g>
</g>
<g transform="translate(218 253)">
<path d="m182 35.039c26.69-34.661 59.132-42.368 97.324-23.121 57.289 28.871 73.203 65.211 73.203 103.5 0 38.289-3.3672 135.54-31.27 159.11-18.602 15.716-46.072 40.702-82.41 74.957l-71.211 42.762-37.32-35.836c-54.888-46.956-84.499-74.25-88.832-81.883-6.5-11.449-22.062 15.805-22.062-33.602 0-32.938 2.8359-58.654 8.5078-77.148l-20.023 8.5977c22.385-54.789 33.578-86.206 33.578-94.25 0-12.066 16.643-74.254 77.688-74.254 40.697 0 61.639 10.389 62.828 31.168z" fill="#fff"/>
<path d="m147.99 74.403c-0.91431 0.12698-1.781 0.4768-2.6327 0.81666-1.022 0.40833-2.0052 0.86148-2.9834 1.3619-1.8011 0.91874-3.3817 2.2371-4.9711 3.4621-1.146 0.87891-2.1981 1.8748-3.2101 2.9056-0.17034-0.1469-0.34568-0.29131-0.52354-0.42949-0.86045-0.67599-1.6921-1.2847-2.6214-1.8487-0.88049-0.53033-1.9326-0.91874-2.8669-1.2984-2.7555-1.113-5.7301-1.5412-8.6797-1.8039-4.6818-0.41331-9.3447-0.61748-13.944 0.6125-3.9729 1.0607-7.4898 3.2293-10.621 5.8112-2.0453 1.6931-3.6748 3.8567-5.2554 5.9619-1.2475 1.6532-2.0403 3.6625-2.5588 5.6507-0.35696 1.3769-0.46467 2.8596-0.56737 4.275-0.092683 1.2063-0.01002 2.4363 0.1027 3.6426 0.088926 0.95236 0.19163 1.8723 0.32815 2.8297 0.25926 1.8474 0.72894 3.5306 1.5268 5.2274 0.83666 1.7802 1.9326 3.3413 3.0961 4.9124 1.4003 1.886 2.892 3.7733 4.5265 5.4652 0.01503 0.016184 0.032564 0.033613 0.047594 0.049797-0.54358 0.40833-1.0821 0.82413-1.6182 1.2437-2.3384 1.8288-4.2622 3.9974-6.1309 6.2831-3.899 4.7705-7.431 9.8423-10.372 15.25-1.6144 2.9766-3.0085 6.0254-4.3248 9.1426-1.1836 2.821-2.3785 5.6407-3.2727 8.5637-0.44588 1.4391-0.87173 2.8782-1.2575 4.3373-0.48972 1.8487-0.72018 3.7347-0.95439 5.632-0.7089 5.7042 0.082664 11.524 2.1668 16.869 4.4187 11.321 13.626 19.744 22.203 28.01 3.924 3.7883 8.5231 6.8619 13.102 9.7999 1.9965 1.2785 4.0117 2.6006 6.1497 3.6364 1.4191 0.68097 2.8431 1.3233 4.3098 1.8972 1.2187 0.4768 2.4123 0.92372 3.7136 1.108 1.1059 0.29256 2.2119 0.29256 3.3178 0 1.5606-0.427 2.9108-1.4628 3.7274-2.8496 0.84668-1.4341 1.0721-3.1795 0.63125-4.7792-0.39077-1.4005-1.4679-3.0936-2.8669-3.7061-1.9238-0.84405-3.8827-1.5312-5.8353-2.2819-4.7719-2.2135-9.1919-5.1664-13.5-8.1604-1.3752-1.0706-2.7367-2.1599-4.0017-3.3588-1.8199-1.7267-3.6197-3.4671-5.4307-5.2087-1.8487-1.774-3.6936-3.5542-5.4596-5.4166-1.4216-1.5051-2.7379-3.0911-4.0292-4.702-0.5536-0.75193-1.121-1.4989-1.627-2.2807-1.1698-1.8338-2.2244-3.675-3.1375-5.6357-0.72393-1.8935-1.28-3.8069-1.6445-5.8013-0.2267-2.4624-0.13151-4.9025 0.13402-7.35 1.1974-5.6718 3.2802-11.091 5.5172-16.429 1.5305-3.36 3.2389-6.6092 5.0851-9.8062 1.8073-3.1247 3.9578-6.0528 6.1209-8.936 0.85544-1.0831 1.7222-2.1599 2.6866-3.1484 1.0446-1.0719 2.168-2.0541 3.3316-2.999 0.97443-0.72454 1.9752-1.4553 3.0611-1.9919 0.54608-0.2079 1.1059-0.43447 1.5669-0.75691 0.94938-0.66603 1.5994-1.1914 2.1968-2.2072 0.57739-0.98224 0.89051-2.1985 0.84668-3.3314-0.1027-2.7475-1.8737-4.8626-3.6547-6.7935-1.9251-2.0815-3.8188-4.1642-5.6249-6.349-0.77779-1.042-1.5005-2.0989-2.1217-3.2492-0.24048-0.74197-0.42584-1.4814-0.57113-2.2471-0.13777-1.5337-0.21793-3.0488-0.13402-4.5975 0.10771-0.53407 0.24048-1.0569 0.4033-1.5835 0.21793-0.40211 0.4534-0.78678 0.71266-1.1677 1.2249-1.4441 2.5262-2.7886 3.9779-4.0148 1.0508-0.69466 2.1305-1.3109 3.2665-1.8574 1.1135-0.40584 2.2344-0.72703 3.3992-0.97352 1.9338-0.13943 3.8601-0.027388 5.8015 0.12076 1.4579 0.10706 2.9095 0.24649 4.3611 0.4158 1.2688 0.2328 2.4999 0.53158 3.7161 0.94987 0.58491 0.29131 1.1435 0.6125 1.6908 0.97228 0.38827 0.35853 0.75399 0.73076 1.1034 1.1204 0.29684 0.45315 0.57113 0.91003 0.82664 1.3819-0.086421 1.1852 0.10521 2.3877 0.75399 3.6165 1.027 1.9296 3.2089 3.0924 5.3769 3.0924 2.138 0 4.5202-1.2785 5.5284-3.2144 0.58616-1.1279 0.91431-1.9993 0.94437-3.2878 0.008767-0.39837-0.018788-0.79301-0.070139-1.1864 0.19664-0.32866 0.4033-0.65233 0.62373-0.97352 1.518-1.7292 3.2089-3.3326 4.9849-4.7929 1.1147-0.79425 2.2545-1.5026 3.4806-2.1251 0.55861-0.19172 1.116-0.34609 1.6959-0.47058 0.44964-0.012449 0.8855-0.0074694 1.3314 0.021164 1.7046 0.33488 3.3491 0.8316 4.9761 1.4478 1.2162 0.56145 2.3647 1.1864 3.4831 1.9346 1.5443 1.2922 2.927 2.7438 4.2071 4.2962 2.2357 3.1633 3.9929 6.6416 5.8065 10.053 1.394 2.6168 4.9899 3.3949 7.4798 1.9508 2.6565-1.5474 3.3416-4.8153 1.9576-7.4359-0.98821-1.8823-1.9914-3.7547-2.9997-5.627-1.5844-2.9567-3.4393-5.6693-5.6311-8.2226-1.4278-1.6632-3.0285-3.1422-4.8045-4.4356-1.8349-1.3271-3.7762-2.2757-5.8654-3.1409-1.771-0.72952-3.562-1.337-5.4358-1.7503-1.0621-0.23902-2.153-0.32617-3.2239-0.46684-0.29183-0.038592-0.58491-0.053531-0.87924-0.053531-1.161 0-2.3346 0.24774-3.4706 0.40335" fill="#2C2C2C"/>
<path d="m245.07 74.002c-2.4151 0.028648-4.87 0.41353-7.2366 0.87563-3.8161 0.74983-7.3013 2.6854-10.377 4.9872-1.7643 1.319-3.5187 2.744-5.0504 4.3358-1.5006 1.5694-2.8941 3.2086-4.1956 4.9249-1.5031-2.2632-3.2898-4.4192-5.4374-6.0833-1.2828-0.99769-2.542-1.8447-4.0189-2.526-1.8328-0.84075-3.6805-1.3963-5.6676-1.7077-3.4752-0.54431-6.8869-0.37367-10.319 0.38488-1.4782 0.32135-2.9601 0.92919-4.3213 1.5719-1.4384 0.68132-2.7747 1.4635-4.0774 2.374-5.196 3.6246-9.1477 8.5483-12.7 13.725-1.4433 2.0975-0.40314 5.1728 1.6723 6.3835 1.0738 0.63274 2.3865 0.80339 3.5909 0.47207 1.2393-0.34502 2.0704-1.1185 2.7859-2.1449 0.6607-0.95161 1.3289-1.8995 2.0107-2.8361 1.9174-2.384 4.055-4.56 6.4216-6.4968 1.294-0.93541 2.6216-1.7463 4.055-2.4488 1.1248-0.41477 2.2571-0.7299 3.4366-0.95285 1.4682-0.12954 2.914-0.13078 4.3835-0.0087189 1.1273 0.20676 2.2123 0.48452 3.2923 0.86566 0.7677 0.3799 1.4869 0.80837 2.1886 1.2929 0.74655 0.67011 1.4147 1.3838 2.0555 2.1498 1.1435 1.6354 2.1227 3.3543 3.0534 5.1217 0.35959 0.68008 0.68932 1.3763 1.0253 2.0676 0.94314 1.9269 2.435 3.7504 4.6809 4.1066 1.5454 0.24288 2.9588 0.2815 4.3586-0.56922 0.93816-0.5742 1.6623-1.2418 2.3728-2.0589 0.9083-1.0513 1.686-2.247 2.4885-3.3867 0.64328-0.91175 1.2928-1.811 1.9572-2.7004 1.7469-1.9705 3.5685-3.8077 5.5991-5.4755 1.4657-1.0625 2.97-2.0153 4.5938-2.7963 1.3687-0.46833 2.7398-0.80588 4.157-1.045 2.1277-0.19182 4.2292-0.19431 6.3569 0.0062278 2.4101 0.39235 4.7754 0.97901 7.1544 1.5457 2.0605 0.49324 4.106 1.0799 6.0906 1.8272 1.0987 0.5194 2.1389 1.1048 3.1417 1.7874 0.54125 0.47082 1.0452 0.96406 1.5217 1.4959 0.23765 0.3799 0.45913 0.76477 0.66941 1.1634 0.30484 0.88061 0.53627 1.7712 0.71047 2.6892 0.075899 0.96406 0.083365 1.9157 0.018663 2.881-0.25134 1.2144-0.59226 2.3828-1.0153 3.5548-0.60222 1.2941-1.2828 2.5098-2.1028 3.6844-1.9908 2.3342-4.2528 4.4404-6.4589 6.5678-1.9933 1.9169-3.9804 3.8338-5.9488 5.7757-0.81747 0.80214-1.6237 1.6242-2.4064 2.4562-1.5068 1.6055-2.7797 3.9322-1.9485 6.2041 0.55867 1.5271 1.3164 2.4612 2.6241 3.3854 0.51014 0.35623 1.1273 0.54556 1.7158 0.74484 0.68434 0.23292 1.4284 0.29022 2.165 0.34751 0.48899 0.11833 0.96429 0.27278 1.4384 0.44591 2.5856 1.2244 5.0591 2.6368 7.3734 4.3258 3.092 2.5683 5.8642 5.5278 8.4124 8.633 1.7843 2.4413 3.2836 5.0184 4.5253 7.776 1.1721 3.0143 2.053 6.0709 2.5905 9.2595 0.22023 2.2258 0.23019 4.4242 0.017419 6.6451-0.48028 2.5833-1.2331 5.0757-2.1911 7.5232-2.3255 5.2886-5.0965 10.359-8.5219 15.014-3.7626 4.7095-8.0404 9.0004-12.471 13.08-3.8087 3.505-7.6957 6.8979-11.713 10.168-1.2928 0.94662-2.6328 1.8061-4.014 2.6331-1.7892 1.0712-3.4553 2.1897-5.079 3.5087-0.68558 0.69128-1.1572 1.5034-1.4197 2.4376-0.39318 1.4249-0.18913 2.9769 0.55369 4.2523 1.187 2.024 3.9181 3.3468 6.2312 2.5347 2.654-0.92919 4.9683-2.5982 7.3685-4.0331 2.7224-1.6255 5.2781-3.4938 7.7616-5.4742 4.8613-3.8774 9.4302-8.0476 13.921-12.339 2.8431-2.7153 5.5357-5.6685 8.0055-8.7239 2.6876-3.3331 5.0106-6.8605 7.0661-10.616 2.1675-3.9659 4.0737-8.1597 5.42-12.476 2.6142-8.339 1.8365-17.331-1.1372-25.455-1.3513-3.6831-3.087-7.2105-5.298-10.451-1.7059-2.4998-3.7041-4.773-5.7397-7.0013-1.1522-1.2642-2.4114-2.4226-3.6705-3.576-2.8717-2.6344-6.1727-4.9972-9.7064-6.6737 1.7283-1.5532 3.4254-3.1425 5.1338-4.7157 1.2443-1.1484 2.4636-2.3217 3.6345-3.5424 3.087-3.221 5.1238-7.2056 6.4502-11.434 0.58853-1.882 0.79756-3.921 0.90457-5.8865 0.097052-1.8297-0.2389-3.703-0.5201-5.5029-0.28742-1.8447-1.075-3.5959-1.8664-5.265-0.3459-0.72492-0.81747-1.3664-1.3027-1.9991-0.86102-1.1148-1.6822-2.0925-2.7274-3.0317-4.2329-3.8052-9.7587-5.605-15.222-6.7721-2.333-0.50196-4.661-1.0077-7.0275-1.339-1.9609-0.27402-3.8883-0.44965-5.8642-0.44965-0.12816 0-0.25383 0.0012456-0.38198 0.0024911" fill="#2C2C2C"/>
<path d="m157.54 146.01c-1.0571 0.053771-2.108 0.26886-3.1551 0.42017-1.3837 0.20508-2.7612 0.4977-4.13 0.78657-2.8921 0.61525-5.7792 1.2743-8.6726 1.8808-2.0694 0.43893-4.1387 0.8641-6.218 1.2405-1.5408 0.27761-3.0866 0.49895-4.6324 0.71154-1.8849 0.17632-3.7635 0.35639-5.6521 0.50896-1.6605 0.13756-3.0878 0.57648-4.2995 1.7882-1.1344 1.138-1.7826 2.7011-1.7826 4.313s0.64823 3.175 1.7826 4.3193c1.0609 1.0642 2.7612 1.9045 4.2995 1.782 6.5733-0.51771 13.069-1.353 19.547-2.5836 2.5219-0.48395 5.0487-1.0167 7.5469-1.6169 0.24433-0.058774 0.48867-0.1188 0.73176-0.17882-0.28173 1.4143-0.57344 2.8286-0.85766 4.243-0.63826 3.175-1.0372 6.4139-1.5046 9.6127-0.44878 3.0725-1.0035 6.125-1.5296 9.1837-0.49116 2.8574-1.2316 5.6811-1.8013 8.5285-0.62829 3.16-1.2566 6.3263-1.8849 9.4914-0.66693 3.3464-1.0908 6.7502-1.6355 10.117-0.51609 3.2138-0.99354 6.4376-1.4909 9.6564-0.46249 3.0187-1.0422 6.0187-1.577 9.0224-1.5146 8.4659-3.4631 16.848-5.4053 25.22-0.97858 4.2255-1.9185 8.4509-2.8148 12.696-0.41387 1.9683-0.78411 3.9604-1.1107 5.9537-0.17951 1.1142-0.36525 2.2272-0.52108 3.3464-0.19946 1.4318-0.47246 2.8774-0.44753 4.328 0.043631 2.3297 1.5632 4.4155 3.8321 5.0408 2.649 0.7328 5.7805-0.8741 6.4138-3.654 0.66194-2.8912 1.451-5.7586 2.1666-8.641 0.70059-2.8324 1.3688-5.6811 2.0507-8.5235 1.5583-6.4876 3.0716-12.984 4.5227-19.5 1.3638-6.1062 2.4259-12.266 3.473-18.435 1.0073-5.9062 1.7677-11.861 2.6627-17.786 0.45376-2.9937 0.91127-5.9787 1.471-8.9536 0.57967-3.0975 1.1593-6.1888 1.7826-9.2813 0.65696-3.2826 1.2803-6.5452 1.8163-9.8528 0.51111-3.155 0.94866-6.3251 1.3925-9.4951 0.39891-2.9062 0.96362-5.7836 1.5483-8.661 0.28298-1.3681 0.58466-2.7349 0.84769-4.1079 0.6769-3.5414 1.5869-8.1433-1.2715-11.011-1.3438-1.3468-3.1876-1.9208-5.0475-1.9208-0.14835 0-0.29669 0.003752-0.44504 0.011255" fill="#2C2C2C"/>
<path d="m181.26 309.09c-0.091407 0.018687-0.18281 0.032392-0.27547 0.04485l-0.011269-0.007475c0.096416-0.011213 0.19158-0.024917 0.28674-0.037375zm-1.614-0.01495c0.22414 0.0299 0.44451 0.057308 0.6674 0.087208-0.22288-0.009967-0.44451-0.039866-0.6674-0.087208zm-17.985-16.566c0.17154 0.13081 0.34184 0.26038 0.51213 0.39244-0.17154-0.13081-0.34184-0.26162-0.51213-0.39244zm-16.735-6.4771c-0.011269 0.009966-0.023791 0.019933-0.037564 0.029899l0.036312-0.029899h0.001252zm9.1683-0.56934c2.89-0.18438 5.7912-0.29651 8.6762-0.56436 3.228-0.30149 6.4473-0.65157 9.6804-0.91444 2.8173-0.22425 5.6497-0.35506 8.4671-0.51079 3.2957-0.18064 6.5826-0.31644 9.8795-0.42856 3.317-0.10714 6.6665 0.097174 9.9834 0.22799 2.7334 0.10714 5.4732 0.35132 8.2079 0.31146 1.2071-0.018688 2.4154-0.039867 3.6237-0.067275-1.0706 0.90572-2.1925 1.7579-3.2919 2.6324-2.4993 1.9809-4.9786 3.9754-7.429 6.0099-2.5581 2.1216-5.0574 4.2969-7.5668 6.4771-2.8837 2.5054-5.691 5.088-8.6749 7.47-1.3949 1.0191-2.8148 1.9634-4.3562 2.7483-0.16278 0.057308-0.32431 0.11212-0.48959 0.1632-0.015025-0.007475-0.030051-0.017442-0.043825-0.027408-2.8612-2.4829-5.4444-5.2786-8.2216-7.8475-1.4775-1.3679-3.0765-2.5988-4.6568-3.8396-1.6779-1.3119-3.3683-2.61-5.0599-3.9057-2.5607-2.0407-5.1013-4.0975-7.573-6.2503-0.62858-0.54816-1.2584-1.0951-1.8895-1.642 0.24417-0.012459 0.48959-0.026163 0.73501-0.042358zm6.3922-11.606c-0.13022 0.014949-0.26045 0.032391-0.39067 0.049833 0.13022-0.017442 0.26045-0.034884 0.39067-0.049833zm43.753-121.66c-1.7756 0.14701-3.2193 0.45348-4.7982 1.2857-1.4588 0.77366-2.5632 2.3646-3.2531 3.8147-0.61105 1.2894-0.99296 2.5303-1.1833 3.9318-0.15276 1.105-0.25544 2.0494-0.16654 3.1495 0.072625 0.93935 0.22914 1.8737 0.3769 2.8031 0.44451 2.8666 1.0318 5.7084 1.5301 8.5651 0.57223 3.2504 1.1745 6.492 1.7806 9.7324 1.1745 6.2827 3.0427 12.43 4.8233 18.562 0.5522 1.8974 1.0606 3.7861 1.5301 5.7084 0.54844 2.2089 1.1595 4.409 1.5652 6.6477 0.44577 2.4381 0.95414 4.8662 1.321 7.3143 0.36187 2.4132 0.69995 4.8276 1.0906 7.232 0.41071 2.5103 0.79261 5.0219 1.321 7.5136 0.53717 2.5253 1.1595 5.007 1.8144 7.5086 0.51839 2.0008 1.0568 4.0053 1.4625 6.0298 0.46705 2.3147 0.86524 4.617 1.2296 6.9492 0.36813 2.8081 0.71498 5.6174 1.0355 8.4293 0.17029 1.5124 0.41947 3.0647 0.54093 4.6158-1.0218 0.012458-2.0473-0.002492-3.0603 0.016196-2.5193 0.049833-5.0186 0.06852-7.538 0-4.9786-0.13081-9.9534-0.69517-14.942-0.58803-5.0725 0.11711-10.14 0.28654-15.197 0.63786-2.622 0.18438-5.239 0.3887-7.841 0.72507-2.8161 0.36627-5.6146 0.8073-8.4157 1.2371-2.6395 0.33886-5.2728 0.69268-7.9073 1.0527-2.4342 0.27782-4.8734 0.26536-7.2525 0.93188-1.4725 0.40863-2.8762 0.80231-4.2698 1.4638-1.8294 0.87208-2.8374 3.0024-2.8374 4.9497 0 2.3023 1.6541 4.2047 3.2331 5.6984 4.628 4.3654 9.137 8.8379 13.95 12.999 2.309 1.9946 4.7206 3.8932 7.0822 5.8342 2.2013 1.8152 4.2748 3.7811 6.3346 5.7532 2.2501 2.1553 4.6705 4.399 7.4203 5.8977 1.7405 0.9543 3.5311 1.353 5.502 1.4016 0.88527 0.023671 2.0297-0.2529 2.905-0.47715 1.008-0.26287 1.9671-0.76369 2.92-1.1773 1.8394-0.78861 3.5023-2.0295 5.1075-3.2068 1.7217-1.2558 3.3896-2.6137 4.9986-4.0103 4.8809-4.2196 9.763-8.4293 14.762-12.502 2.2251-1.8152 4.5002-3.573 6.7003-5.4169 1.1307-0.94434 2.2363-1.8974 3.2781-2.9439 1.291-1.2894 2.3328-2.8666 3.2769-4.419 0.87024-1.4414 0.89904-3.1794 0.26546-4.6444 0.8452-0.65157 1.5502-1.4688 2.0285-2.4755 1.3448-2.828 1.3987-5.9762 1.4625-9.0522 0.06386-2.9775-0.1465-5.9613-0.36688-8.9351-0.25419-3.3675-0.6699-6.7835-1.2722-10.107-0.53717-3.0124-1.1933-5.985-1.9271-8.9587-0.74378-2.9937-1.5063-6.0012-2.0247-9.0372-0.57724-3.3974-1.1445-6.7885-1.7067-10.186-0.54343-3.3189-1.2284-6.6091-1.8882-9.9081-0.38692-1.9273-0.96917-3.816-1.4725-5.7134-0.51338-1.9123-1.0368-3.801-1.624-5.6884-0.62107-1.9809-1.2572-3.9567-1.8482-5.9426-0.66614-2.2288-1.4337-4.4476-1.9909-6.7063-1.0618-4.2769-2.0698-8.5451-2.9689-12.857-0.47457-2.2923-0.95414-4.5747-1.4575-6.862-0.4082-1.8625-0.90405-3.7188-1.2534-5.6 0-0.01495-0.001252-0.031145-0.002504-0.046095 1.1232-0.003738 2.2476 0.02367 3.3633 0.034883 1.7981 0.021179 3.5736 0.1333 5.3555 0.31146 4.3487 0.71635 8.6799 1.4987 13.05 2.098 5.1025 0.69517 10.263 0.9244 15.398 1.2645 2.9501 0.1956 5.4105-2.5976 5.4105-5.387 0-1.4202-0.57223-2.7981-1.5852-3.8048-1.0668-1.0614-2.3528-1.4751-3.8253-1.5772-4.1296-0.28031-8.2467-0.60049-12.366-0.98794-2.8249-0.44476-5.6384-0.92067-8.4508-1.4601-3.3357-0.63786-6.6715-1.3094-10.071-1.5087-1.2221-0.071012-2.4429-0.10839-3.6625-0.10839-1.6015 0-3.1992 0.063537-4.7982 0.1956z" fill="#2C2C2C"/>
<path d="m163.72 237.65c-1.4527 2.5024-0.63682 6.0059 1.9291 7.4292 0.99005 0.54645 1.9689 1.0992 2.9104 1.7235 0.3694 0.3442 0.71144 0.70725 1.0423 1.0904 0.62562 0.93839 1.1803 1.8956 1.6766 2.9119 0.6791 1.8454 1.1306 3.7309 1.4614 5.6843 0.30099 2.6694 0.49129 5.3301 0.6194 8.0222 0.073383 1.5552 0.14552 3.1104 0.10199 4.6718-0.053482 1.8881-0.52487 3.9294 0.19403 5.7459 0.25746 0.93713 0.72885 1.7512 1.4092 2.4433 1.0249 1.0351 2.4291 1.6243 3.8818 1.6243 2.3134 0 4.8047-1.6783 5.291-4.0676 0.3893-1.5112 0.50497-3.0966 0.66542-4.6467 0.12189-1.1632 0.11692-2.3365 0.073383-3.5086-0.092039-2.4144-0.14055-4.8678-0.41791-7.2722-0.18532-1.5954-0.39428-3.1857-0.63682-4.7698-0.44652-2.9106-1.2338-5.717-2.4726-8.3915-1.4776-3.2046-3.5908-6.212-6.4614-8.2885-1.2351-0.89819-2.5808-1.6142-3.9117-2.3504-0.85945-0.47485-1.7973-0.70473-2.7214-0.70473-1.842 0-3.6281 0.91703-4.6343 2.6531" fill="#2C2C2C"/>
<path d="m197.41 240.68c-1.0992 0.65545-2.2086 1.2783-3.3331 1.8899-2.5683 1.3999-4.9346 3.1331-7.0738 5.1158-1.9625 1.821-3.6334 4.0142-5.1517 6.2023-0.72442 1.0427-1.44 2.0754-2.1202 3.1482-1.281 2.0315-2.3663 4.127-3.3369 6.3252-0.61714 1.4049-1.1889 2.8286-1.6571 4.2924-0.655 2.0415-1.0601 4.4353-0.38871 6.5169 0.2461 0.88104 0.69413 1.6493 1.3453 2.296 0.90237 0.89608 2.3865 1.6493 3.7029 1.5227 1.074-0.099007 1.8931-0.1717 2.8434-0.72563 0.95159-0.54767 1.435-1.2971 2.0862-2.1343 0.46822-0.79707 0.69918-1.6593 0.70422-2.5842 0-0.53514-0.085819-1.064-0.24989-1.5678 0.27639-0.93869 0.6184-1.8536 0.9844-2.7634 1.7656-3.9051 3.9363-7.5935 6.5008-11.032 1.228-1.4701 2.543-2.806 4.0158-4.0254 1.9852-1.4112 4.1446-2.5491 6.2307-3.8061 2.3512-1.4149 3.2195-4.4791 1.8136-6.8691-0.92635-1.5703-2.6617-2.4777-4.4184-2.4777-0.85693 0-1.7214 0.21681-2.4976 0.67676" fill="#2C2C2C"/>
<path d="m191.44 378.86c-0.2592 0.10976-0.51839 0.21951-0.77759 0.32677 0.2592-0.10976 0.51839-0.21826 0.77759-0.32677m45.825-36.92c-0.19066 0.082317-0.38007 0.16214-0.57073 0.24321 0.18567-0.091048 0.37509-0.17336 0.57073-0.24321m65.222-83.472c-0.16823 0.021203-0.33646 0.044901-0.50593 0.068598 0.16823-0.032428 0.3377-0.056125 0.50593-0.068598m-50.566-258.43c-2.8524 0.11724-5.6948 0.29684-8.5422 0.52134-2.9895 0.23822-5.9777 0.77952-8.9223 1.3009-2.6879 0.4727-5.3459 1.1736-7.9977 1.8072-2.5421 0.60491-5.0917 1.1749-7.6475 1.71-2.5458 0.53132-5.0194 1.2036-7.4967 2.0031-1.2648 0.40909-2.4923 0.93043-3.7284 1.4169-3.1888 1.2522-6.2556 2.8063-9.1852 4.5798-3.0917 1.8708-5.807 4.3753-7.9291 7.2938-1.0181 1.4031-1.8356 2.8599-2.4835 4.4676-0.29658 0.72589-0.52088 1.3882-0.69534 2.149-0.19938 0.88678-0.23926 1.8172-0.35515 2.7177-0.14206 1.1163 0.56948 2.4408 1.3234 3.2016 0.84238 0.84313 2.0013 1.3196 3.1938 1.3196 1.1925 0 2.3502-0.47644 3.1926-1.3196 0.23926-0.30682 0.47228-0.61364 0.70656-0.91671 0.40873-0.70593 0.61808-1.4655 0.61808-2.2849 0.001247-0.0074834 0.002493-0.017461 0.003739-0.026192 0.073522-0.38789 0.16947-0.75956 0.28661-1.135 0.40375-0.79698 0.86108-1.5466 1.377-2.2762 0.97572-1.1562 2.0362-2.1889 3.1963-3.158 2.2405-1.6014 4.6855-2.8562 7.1977-3.9837 2.6518-1.0813 5.3833-2.0118 8.1784-2.6242 2.4823-0.54005 4.9845-0.93542 7.4818-1.4069 5.169-0.97908 10.297-2.1802 15.491-3.0208 1.7334-0.22076 3.4667-0.42156 5.2113-0.52633 2.3614-0.14593 4.7266-0.23448 7.0967-0.27314 4.096-0.074834 8.1858 0.26815 12.246 0.76705 3.8393 0.61613 7.6375 1.3395 11.431 2.1951 3.7384 0.84437 7.3522 2.1178 10.935 3.4648 1.9041 0.82691 3.7945 1.6775 5.6786 2.5518 2.2343 1.0377 4.3864 2.2226 6.5522 3.3912 2.1807 1.1786 4.3029 2.4795 6.43 3.7517 3.0854 1.8459 6.1322 3.8539 9.0095 6.0092 3.8468 3.0345 7.5416 6.3334 10.851 9.9417 2.1446 2.3361 4.3116 4.6322 6.2992 7.0967 2.4736 3.3825 4.5658 6.982 6.3104 10.789 0.5321 1.3221 1.0181 2.6628 1.4667 4.0161-3.4069-1.3495-6.9509-2.1901-10.596-2.608-3.7097-0.41907-7.5354-0.23448-11.011 1.2223-1.5626 0.65729-3.0032 1.3794-4.425 2.3099-0.95828 0.6286-1.8443 1.3832-2.7452 2.0941-1.2848 1.009-2.3116 2.3386-3.2275 3.6743-0.10218 0.23822-0.19938 0.4727-0.30156 0.71092-0.45733 0.78451-0.68662 1.6326-0.68662 2.5381-0.10218 0.88179-0.004984 1.6763 0.18567 2.5481 0.16075 0.73088 0.65671 1.564 1.0904 2.1926 0.5645 0.82317 1.1925 1.4667 1.9228 2.134 1.8243 1.685 4.0549 2.9322 6.045 4.4189 1.0567 0.79074 2.1159 1.5852 3.1776 2.3772 1.2598 1.0053 2.5184 2.008 3.7783 3.0108 1.6162 1.2859 3.1839 2.6017 4.678 4.0298 1.777 1.6937 3.3994 3.5621 4.9284 5.4791 3.8381 5.1423 6.9522 10.745 9.7036 16.537 1.9888 4.1782 3.9976 8.3377 5.8282 12.587 1.3845 3.4087 2.5458 6.8872 3.5278 10.433 1.0816 3.8814 1.7695 7.8476 2.3228 11.835 0.55079 4.4726 0.75142 8.9451 0.93335 13.441 0.098444 2.4408 0.12212 4.9054 0.034892 7.3474-0.058569 1.6152-0.12337 3.2266-0.19564 4.8393-0.092214-0.10851-0.18318-0.21577-0.27664-0.32303-2.5558-2.9721-5.0767-5.9879-7.7696-8.8441-2.6131-2.7664-5.2562-5.4703-8.0463-8.0621-1.3334-1.2422-2.7303-2.4171-4.1222-3.5908-0.65796-0.55626-1.3197-1.1063-1.9963-1.6426-1.2648-0.99404-2.3901-1.9382-3.9278-2.4745-2.1807-0.75956-4.8088 0.84313-5.3347 3.0308-0.35141 1.4618-0.097198 2.699 0.56948 4.0086 0.34019 0.66852 0.68537 1.3308 1.0318 1.9981 0.39876 0.77453 0.77385 1.569 1.1489 2.3635 0.97572 2.0741 1.9664 4.1458 2.8773 6.2511 2.4125 5.8994 4.0599 12.012 5.2462 18.269 0.38381 2.038 0.64176 4.1059 0.94457 6.1576 0.32773 3.2341 0.67291 6.4656 0.89098 9.7109 0.17072 2.4845 0.34019 4.9552 0.42368 7.4447 0.15577 4.8131-0.18443 9.6099-0.77634 14.381-0.50842 3.4685-1.2162 6.876-2.2081 10.242-0.68662 2.3236-1.5863 4.5798-2.4574 6.8398-0.87229 2.2687-1.7994 4.5137-2.734 6.7575-1.3346 2.9297-2.7365 5.8021-4.2755 8.6383-0.53334 0.98282-1.063 1.9756-1.6075 2.9597-0.92961-1.2023-1.8792-2.3884-2.8524-3.5546-1.8343-2.1964-3.9864-4.0335-6.2793-5.7335-0.9969-0.73587-2.1409-1.3009-3.2512-1.8471-2.1421-1.0477-4.4886-1.9095-6.9073-1.7149-1.8206 0.15092-3.3247 0.91671-4.6045 2.2176-0.76512 0.77453-1.3683 1.7686-1.8692 2.7377-0.62307 1.2136-1.2274 2.4408-1.8206 3.6731-1.2125 2.4945-2.2642 5.0812-3.286 7.6592-1.139 2.8749-2.2779 5.7435-3.4219 8.6134-2.0686 5.1835-4.0213 10.407-5.944 15.644-1.3184 3.5983-2.5782 7.2127-4.0275 10.762-1.3109 2.9634-2.8736 5.7585-4.7677 8.3914-2.4835 3.0582-5.387 5.6712-8.3042 8.319-1.539 1.3981-3.0767 2.7975-4.6144 4.1907-2.5994 2.3672-5.0094 4.9303-7.3995 7.5021-2.2343 2.4022-4.2543 4.9889-6.4986 7.3811-1.0443 1.1125-2.0785 2.245-3.1378 3.3526-0.074768-0.44651-0.162-0.88927-0.27415-1.3258-0.36013-1.4031-1.119-2.7227-2.1558-3.7267-0.7402-0.7209-1.6162-1.004-2.5658-1.3208-1.0468-0.35047-2.268-0.097284-3.3047 0.11724-0.24923 0.10227-0.50219 0.19956-0.75516 0.29809-0.60811 0.20829-1.1876 0.49141-1.7284 0.84188-0.78756 0.45399-1.5041 1.1312-2.1845 1.7299-1.3932 1.2273-2.5072 2.8113-3.6275 4.278-0.74519 0.97159-1.4879 1.9444-2.2306 2.9173-1.1701 1.3807-2.3365 2.7601-3.5029 4.147-0.52088 0.61364-1.1489 1.1687-1.7134 1.7436-0.78382 0.79948-1.5676 1.5977-2.3514 2.4022-1.3483 1.3695-2.8811 2.5917-4.3129 3.8776-1.1863 1.0714-2.4898 2.0305-3.7558 3.0183-2.0723 1.5116-4.1982 2.921-6.4176 4.2069-2.2381 1.3009-4.582 2.3822-6.9397 3.4311-3.1801 1.3408-6.3665 2.6691-9.513 4.0922-1.4654 0.66228-2.891 1.3981-4.3178 2.1378-1.1801 0.61738-2.3689 1.2348-3.4281 2.0405-1.038 0.59992-1.8717 1.5628-2.0823 2.7352l-0.013707 0.087306c-0.29783 1.6813-0.058568 3.274 1.1963 4.5312 1.5539 1.554 3.7484 1.6663 5.6375 0.72589 0.70033-0.34673 1.3533-0.79448 2.0349-1.1699 0.76886-0.41907 1.5626-0.78451 2.3552-1.14 1.7483-0.78576 3.5128-1.5391 5.2736-2.2974 4.1621-1.7386 8.369-3.4336 12.372-5.5078 3.6561-1.8896 7.1653-4.2481 10.32-6.8934 1.4206-1.1886 2.911-2.3286 4.2593-3.6057 1.3284-1.2609 2.7552-2.4645 4.0013-3.809 0.72525-0.78451 1.4555-1.574 2.1807-2.3585 0.55951-0.60865 1.1826-1.1936 1.6935-1.8409 1.1489-1.443 2.2979-2.8898 3.4418-4.3316 1.4854-1.8696 2.8125-3.8664 4.2244-5.7921 0.066045-0.079823 0.13209-0.15964 0.19938-0.23822 0.019938 0.17711 0.042368 0.35671 0.063552 0.53506 0.16075 1.2609 0.35515 2.4545 0.76014 3.6681 0.70033 2.0804 2.3951 3.8976 4.7316 3.8976 1.8779 0 3.6399-1.0227 5.1004-2.1141 1.3296-0.99404 2.5658-2.0754 3.7733-3.2203 1.9278-1.8222 3.787-3.728 5.6313-5.6375 1.7521-1.8272 3.3932-3.7616 5.1453-5.5876 2.1122-2.2026 4.2929-4.3167 6.4986-6.432 2.4823-2.3822 5.1303-4.6085 7.6911-6.9034 2.7938-2.5082 5.2861-5.3294 7.4818-8.3751 2.4873-3.4586 4.1708-7.3811 5.7197-11.327 1.2262-3.1368 2.2729-6.3521 3.377-9.5388 1.7633-5.0675 3.559-10.114 5.4481-15.138 2.0387-5.403 4.0013-10.83 6.1908-16.175-0.048599 0.11724-0.098444 0.23323-0.14704 0.35047 0.52462-1.2547 1.0405-2.5506 1.6922-3.7454 0.13583 0.044901 0.27041 0.091048 0.40624 0.14094 1.2611 0.62237 2.4511 1.3295 3.6237 2.1091 2.729 2.2862 5.0344 5.0101 7.2512 7.7889 1.0243 1.3582 2.0287 2.7327 3.0966 4.051 0.16947 0.14592 0.34019 0.28686 0.50593 0.4278 0.54954 0.54629 1.1925 0.9217 1.9377 1.1312 0.78382 0.21826 1.8642 0.23822 2.653 0.018708 1.2362-0.34049 2.1845-1.2223 2.9683-2.1964 1.7533-2.1876 3.3147-4.5262 4.7216-6.9533 1.4318-2.4695 2.7951-4.959 4.0213-7.537 1.2312-2.5718 2.3652-5.1885 3.4954-7.8089 1.8393-4.283 3.5913-8.561 4.7453-13.091 0.9346-3.6743 1.4069-7.4796 1.8206-11.24 0.45733-4.1608 0.61808-8.3315 0.48225-12.511-0.10717-3.3713-0.42867-6.7338-0.6916-10.095-0.10717-1.3395-0.30655-2.6803-0.45733-4.0148-0.18443-1.6127-0.30655-3.254-0.58444-4.8567-0.38879-2.2812-0.78382-4.5611-1.1776-6.8411-0.48225-2.8063-1.2461-5.5926-2.0299-8.3265-0.26293-0.92046-0.54331-1.8359-0.84114-2.7464 2.6592 2.7639 5.1627 5.6886 7.6949 8.5647 2.4237 2.7564 4.7066 5.6412 7.1503 8.3789 0.75516 0.84313 2.0113 1.2909 3.1203 1.2909 1.276 0 2.162-0.53007 3.1203-1.2909 1.3633-1.0863 1.4941-3.0782 1.787-4.6821 0.28661-1.564 0.49596-3.1468 0.69534-4.7307 0.36512-2.9759 0.62306-5.953 0.82743-8.9439 0.078506-1.1213 0.093459-2.2413 0.11714-3.3625 0.029907-1.2722 0.10218-2.5481 0.068537-3.8203-0.1271-4.389-0.25795-8.7493-0.71528-13.125-0.42368-4.0735-1.0717-8.1369-1.9377-12.137-0.87603-4.0435-2.1708-8.0097-3.6262-11.877-1.777-4.7021-4.0113-9.2233-6.207-13.744-2-4.1258-4.015-8.2192-6.3179-12.194-3.7671-6.5043-8.5235-12.628-14.282-17.49-1.1876-1.004-2.4437-1.9345-3.6649-2.8998-1.2374-0.97409-2.4586-1.9781-3.7247-2.9223-1.0953-0.81444-2.1895-1.6326-3.2798-2.4508-1.1115-0.82567-2.2493-1.6127-3.3758-2.4159 1.1838-0.82192 2.4013-1.5528 3.701-2.1802 0.89472-0.31804 1.7919-0.55252 2.7203-0.72339 1.6511-0.11475 3.2786-0.054878 4.916 0.12098 2.7303 0.45274 5.3808 1.14 7.964 2.1253 1.2237 0.56001 2.3976 1.1836 3.559 1.8796 1.3296 0.79324 2.4387 1.8122 3.9864 2.1827 3.8942 0.92544 6.9372-2.2612 7.584-5.842 0.42867-2.3585 0.12711-4.8081-0.35515-7.1416-0.2916-1.443-0.61808-2.8649-0.98818-4.288-1.7857-6.8598-5.0917-13.388-9.3946-19.005-2.4574-3.2104-5.1889-6.1389-7.9142-9.121-2.2829-2.4895-4.8724-4.7594-7.4332-6.9521-3.2125-2.7526-6.6207-5.2321-10.168-7.527-2.2592-1.4568-4.5521-2.8449-6.8687-4.1994-4.916-2.8848-10.043-5.413-15.294-7.6256-4.9808-2.1041-10.033-3.9213-15.324-5.0712-5.8568-1.2672-11.805-2.2463-17.787-2.6653-1.9165-0.13221-3.8593-0.23697-5.792-0.23697-0.68413 0-1.3658 0.01372-2.0449 0.042406" fill="#2C2C2C"/>
<path d="m98.419 329.23c0.15738 0.11864 0.3135 0.23728 0.46963 0.35716-0.15613-0.11864-0.3135-0.23728-0.46963-0.35716zm-71.113-67.39c-0.001249 0.001249-0.002498 0.002498-0.003747 0.002498-0.028727 0.003746-0.057455 0.007493-0.087431 0.00999 0.031225-0.004995 0.061202-0.008741 0.091178-0.012488zm17.414-1.1839c0.047462 0.004995 0.094925 0.012488 0.14239 0.019981-0.048712-0.006244-0.098672-0.012488-0.14738-0.018732 0.001249 0 0.002498-0.001249 0.0049961-0.001249zm-10.509-171.36c0.014988 0.036216 0.029976 0.072431 0.044965 0.10865-0.016237-0.036216-0.031225-0.072431-0.044965-0.10865zm29.779-4.8766c0.073692 0.027474 0.14613 0.057446 0.21733 0.092412-0.072443-0.03122-0.14489-0.062441-0.21733-0.092412zm-0.31725-0.0037465c0.0012491 0.0012489 0.0024981 0.0024977 0.0037471 0.0024977-0.001249 0-0.002498-0.0012488-0.0037471-0.0024977zm120.2-56.486c0.067447 0.14486 0.12865 0.28973 0.1861 0.43709-0.061202-0.14611-0.12365-0.29222-0.1861-0.43709zm-57.528-27.927c-6.8646 0.013737-13.773 1.0777-20.228 3.448-3.0976 1.1414-6.084 2.6-8.9767 4.191-3.1712 1.7458-6.1189 3.8239-9.0266 5.9706-2.7079 1.9956-5.3183 4.1074-7.9475 6.2104-4.103 3.2731-8.1186 6.6437-12.139 10.024-1.4688 1.2388-2.8927 2.5314-4.3228 3.8151-2.2445 2.0143-4.5277 3.99-6.6985 6.088-5.1909 5.0053-9.9534 10.351-14.369 16.054-1.9909 2.5713-3.8257 5.2538-5.6993 7.9075-2.7366 3.8688-5.1072 7.9562-7.3817 12.104-1.3265 2.419-2.493 4.9466-3.5122 7.5066-0.72693 1.8445-0.99546 3.8101-1.0979 5.7808-0.097423 1.8395 0.26854 3.9425 1.625 5.2987 0.64824 0.64814 1.6974 1.3163 2.5855 1.561 1.1166 0.30721 2.4643 0.27224 3.5909 0.018732 1.1766-0.266 2.3144-0.6806 3.4335-1.1527-0.7544 0.79175-1.4801 1.616-2.1795 2.4801-2.3269 2.8823-4.2304 5.9806-5.9715 9.2437-1.5225 2.8535-2.9477 5.7471-4.3865 8.6393-2.3469 4.7268-4.7225 9.4348-7.0944 14.147-0.89804 1.7808-1.7711 3.5754-2.6492 5.3662-1.0092 2.058-2.0983 4.0924-3.0201 6.1904-1.7998 4.0974-3.6496 8.161-5.2296 12.352-0.66947 1.7796-1.3614 3.5504-1.9422 5.3662-0.66323 2.0531-1.3027 4.1024-1.8785 6.1854-0.5021 1.8145-0.92677 3.644-1.3027 5.4873-0.23856 1.1664-0.36097 2.3615-0.47338 3.5466-0.053708 0.5757-0.053708 1.1614-0.043716 1.7421 0.014988 1.4199 0.49336 2.7761 1.5076 3.7902 1.1129 1.1127 2.8253 1.4099 4.3128 1.0003 1.1803-0.32719 2.157-1.1851 3.0588-1.9706 0.74191-0.64938 1.4788-1.3025 2.2207-1.9469 1.4101-1.2338 2.8627-2.4127 4.3191-3.5916 2.6716-2.0181 5.3882-3.94 8.2785-5.6534 0.68321-0.40337 1.3739-0.80049 2.0696-1.1889-0.84933 1.7496-1.5775 3.5666-2.2745 5.3549-2.538 6.5226-3.777 13.411-4.6888 20.323-0.5121 3.9075-0.80062 7.8151-1.0154 11.743-0.13614 2.4727-0.37096 4.9603-0.40968 7.4392-0.068696 4.8242-0.20983 9.6534-0.12615 14.483 0.092427 5.2975 0.23856 10.586 0.4434 15.884 0.073692 1.9319 0.24356 3.8638 0.37096 5.7958 0.053708 0.82921 0.18485 1.6534 0.28228 2.4777 0.13739 1.1414 0.22982 2.3128 0.44965 3.4442 0.37595 1.9219 0.75066 3.8189 1.3364 5.6921 0.58079 1.8732 1.1853 3.7427 1.8148 5.6009 0.40968 1.2051 0.85932 2.4926 1.5912 3.5317 1.4489 2.0531 3.8057 3.1508 6.2888 2.3615 1.3364-0.4246 2.4293-1.2888 3.5559-2.088 0.71818-0.50827 1.4401-1.0153 2.1521-1.5273 1.1953-0.85918 2.3906-1.7533 3.6109-2.6125-0.41467 2.8161-0.059953 5.7333 0.69195 8.462 0.7032 2.5463 1.9135 4.9603 2.9814 7.3705 0.48836 1.1077 0.98048 2.2104 1.4638 3.3169 0.5708 1.3125 1.1416 2.63 1.7124 3.9413 1.3177 3.0246 3.0051 5.8644 4.9036 8.5569 2.7466 3.8976 5.9765 7.4005 9.3189 10.791 3.8057 3.8676 7.6452 7.6927 11.5 11.512 3.1075 3.0783 6.1477 6.2254 9.2552 9.3037 1.6837 1.6634 3.3661 3.3318 5.0498 4.9953 3.7271 3.6977 7.9475 7.0383 12.398 9.8144 2.3419 1.4586 4.8687 2.5763 7.4254 3.6003 2.3719 0.9466 4.8599 1.571 7.3767 1.9956 2.4918 0.41835 5.0148 0.62816 7.5303 0.87292 1.0117 0.16484 2.0097 0.35217 3.0189 0.5757 1.0954 0.23977 2.1695 0.62191 3.2212 1.0265 0.71194 0.33218 1.4064 0.6856 2.0646 1.1102 0.27853 0.26225 0.53957 0.53574 0.79063 0.82172 0.2523 0.37589 0.48337 0.76178 0.70944 1.1589 0.6345 1.1065 1.3614 2.1804 2.2545 3.1021 1.264 1.3038 2.7491 2.3728 3.9869 3.6977 1.1728 1.6847 2.0734 3.5404 3.0726 5.3362 0.78563 1.4149 1.6637 2.7911 2.503 4.181 1.7124 2.8436 3.4161 5.7271 4.8162 8.7367 1.4539 3.132 2.839 6.2878 4.2979 9.4148 0.64949 1.4049 1.3564 2.7861 2.1271 4.1273 0.81935 1.4237 1.9659 2.7749 3.4498 3.5217 0.99047 0.49328 1.8048 0.6294 2.9027 0.73181 1.4351 0.13612 2.7566-0.8392 3.782-1.6734 0.54082-0.54573 0.91678-1.1851 1.1216-1.9219 0.30726-1.1264 0.15113-2.3515-0.43965-3.3556-0.5708-0.97158-1.5126-1.7034-2.6004-2.0006-0.099921-0.027474-0.20234-0.05245-0.30851-0.07368-0.047463-0.10365-0.093676-0.2073-0.13989-0.3122-2.5855-6.1667-5.1672-12.37-8.5045-18.175-1.6724-2.9172-3.5122-5.7371-5.1422-8.683-0.41967-0.75678-0.82934-1.5173-1.229-2.2791-0.96674-1.8195-2.157-3.5267-3.6159-4.9803-0.66323-0.65813-1.4289-1.2188-2.1271-1.8433-0.48087-0.43334-0.93801-0.87417-1.3727-1.3487-0.49711-0.75428-0.93551-1.5423-1.4613-2.2766-0.75191-1.0528-1.5962-2.058-2.528-2.951-2.0933-2.0006-4.8399-3.0833-7.5091-4.0636-2.2532-0.82921-4.6338-1.2438-7.0007-1.5847-1.1416-0.1611-2.2882-0.32719-3.4348-0.49328-3.0039-0.43459-5.9441-1.305-8.7656-2.4227-3.3786-1.556-6.4999-3.4892-9.475-5.7083-4.3353-3.4455-8.2223-7.3905-12.184-11.246-2.5767-2.5026-5.1085-5.054-7.6652-7.5803-2.5367-2.5076-5.1472-4.9466-7.6802-7.4629-4.1242-4.1024-8.3672-8.1148-11.998-12.673-1.7099-2.3141-3.2212-4.7143-4.5414-7.2794-0.75066-1.4486-1.4239-2.9372-2.1071-4.4196-1.1791-2.5314-2.4431-5.0277-3.5809-7.5778-0.56081-1.4062-1.0267-2.8123-1.3327-4.2984-0.066198-0.8467-0.064949-1.6822 0-2.5314 0.30351-1.5023 0.76065-2.946 1.244-4.4033 0.7669-2.2928 0.58579-5.1314-1.2628-6.8635-3.0014-2.8048-7.2805-0.81922-10.261 0.93162-1.8548 1.0927-3.5772 2.4002-5.3083 3.669-0.7644 0.55947-1.525 1.1377-2.2944 1.7059-0.23357-0.81548-0.46713-1.631-0.69195-2.4477-0.34598-1.2538-0.65823-2.5076-0.95675-3.7752-0.22108-0.93911-0.36346-1.9019-0.51584-2.8535-0.19859-1.867-0.39094-3.724-0.50835-5.5959-0.14613-2.3315-0.27853-4.6543-0.38095-6.9909-0.22357-5.0577-0.34598-10.122-0.47712-15.186-0.048712-1.9407 0.0087431-3.8876 0.018735-5.8295 0.0099922-2.1754-0.058704-4.3709 0.034972-6.5463 0.12615-2.9322 0.24855-5.8582 0.3747-8.7904 0.16487-3.93 0.49836-7.8426 0.98922-11.746 0.49586-3.4442 1.1341-6.8548 1.9635-10.235 0.76065-3.0883 1.7986-6.113 3.0014-9.0552 0.68446-1.5448 1.4301-3.0584 2.2632-4.5307 0.64824-1.1514 1.3265-2.2928 1.8973-3.4829 0.47837-1.0003 0.91678-2.1267 0.91678-3.2532 0-1.3175-0.58454-2.4202-1.4539-3.3718-0.60952-0.66812-1.61-1.0927-2.478-1.2538-1.3951-0.2585-2.6741-0.003747-3.9819 0.49828-1.7948 0.6831-3.5072 1.5997-5.2246 2.4489-1.4588 0.71682-2.9327 1.4286-4.3328 2.2529-3.1175 1.8295-6.084 3.8001-8.9629 5.9818-0.22108 0.16734-0.44215 0.33718-0.66073 0.50827 0.18735-0.55198 0.3747-1.104 0.56331-1.6547 1.2965-3.7764 2.7828-7.4754 4.2554-11.182 1.4451-3.217 2.8153-6.4714 4.3703-9.6384 1.8061-3.659 3.5959-7.3231 5.4207-10.971 1.8448-3.674 3.6883-7.3518 5.5082-11.035 1.1466-2.3178 2.2894-4.6344 3.4348-6.9472 1.8585-3.7614 3.8482-7.4904 6.335-10.878 0.79687-0.98781 1.6287-1.9419 2.5068-2.8735 1.1478-1.2138 2.4268-2.3016 3.7358-3.3468 3.4648-2.5613 7.2468-4.5757 11.11-6.4676 2.0159-0.99031 4.0543-1.9419 6.0302-3.0047 1.0592-0.57071 2.0646-1.2051 3.0251-1.9319 1.269-0.95659 2.3906-1.9032 3.1762-3.3119 0.42966-0.7368 0.64449-1.5373 0.64949-2.3915 0-0.69184-0.25855-2.0143-0.6932-2.595-0.35097-0.46831-0.68821-0.94535-1.0879-1.365-0.4484-0.46831-1.0142-0.82047-1.5313-1.2001-1.0442-0.77177-2.7528-1.0927-4.0206-1.1464-1.1666-0.048704-2.3669 0.1024-3.5135 0.3172-1.1566 0.21355-2.2932 0.46831-3.4348 0.74055-4.484 1.069-8.8405 2.7474-13.012 4.6781-2.6629 1.2338-5.2871 2.5513-7.9275 3.8351 1.6574-3.2569 3.4735-6.4439 5.3758-9.5572 1.259-2.0531 2.508-4.0824 3.8844-6.058 1.8098-2.595 3.5834-5.2151 5.4969-7.7339 4.8075-6.1242 10.062-11.876 15.834-17.116 2.6054-2.3603 5.1672-4.7855 7.8451-7.0633 2.7566-2.3465 5.4694-4.7655 8.2847-7.0433 2.8702-2.3178 5.7405-4.6394 8.6107-6.9622 2.498-1.8807 5.0023-3.7527 7.6365-5.4436 2.7541-1.7746 5.6818-3.3069 8.6769-4.6306 3.8894-1.5573 7.9175-2.6013 12.057-3.2432 6.7871-0.79175 13.649-0.45956 20.416 0.38089 6.7397 0.96409 13.431 2.4964 19.914 4.5857 4.1892 1.3487 8.4009 2.6225 12.481 4.2722 2.3456 1.0315 4.6076 2.1842 6.691 3.6803 1.0517 0.88416 2.0034 1.827 2.884 2.8798 0.79937 1.1127 1.4826 2.2629 2.0796 3.5004 0.0637 0.18732 0.1224 0.37714 0.17486 0.57071 0.007494 0.1611 0.008743 0.32095 0.004996 0.48204-0.29852 0.56322-0.62326 1.1102-0.9555 1.6634-1.0629 1.7708-0.40468 4.1511 1.3614 5.1863 1.8011 1.0528 4.128 0.40961 5.1922-1.3612 0.30726-0.51201 0.61452-1.0253 0.90678-1.5473 0.66323-1.1651 1.0729-2.3752 1.1466-3.7165 0.092427-1.7808-0.33224-3.3468-1.0342-4.9715-0.74191-1.7259-1.6587-3.2869-2.7866-4.7855-0.92677-1.2388-1.9222-2.3603-3.0638-3.3993-1.1316-1.0303-2.4044-1.9419-3.6833-2.7811-2.864-1.8832-6.1526-3.1757-9.3289-4.4196-3.0289-1.1801-6.1377-2.1567-9.2165-3.1995-5.0485-1.7034-10.206-3.0783-15.427-4.1573-6.8633-1.4199-13.897-2.1992-20.91-2.1992h-0.19734z" fill="#2C2C2C"/>
<path d="m135.68 160.42c-0.39863 1.7594-0.81184 3.5226-1.1631 5.2973-0.54082 2.7197-1.0063 5.9163 0.51287 8.419 1.0586 1.7442 2.777 2.863 4.7848 2.863 2.0272 0 3.7031-1.129 4.786-2.863 0.86775-1.3903 0.86775-3.0368 0.97956-4.6364 0.35852-1.9712 0.81427-3.9209 1.2518-5.8744 0.72191-3.2004-0.91636-6.5252-4.0398-7.422-0.48127-0.13827-0.97591-0.20423-1.4681-0.20423-2.5315 0-5.0351 1.7416-5.644 4.4207" fill="#2C2C2C"/>
<path d="m217.89 162.48c-0.80476 0.87541-1.4798 1.843-2.1804 2.8018-0.76917 1.0609-0.85943 2.6947-0.51617 3.9013 0.2708 0.97627 0.84418 1.8479 1.6197 2.5017 0 0.61764 0.006357 1.234 0.029241 1.8517 0.10934 2.9724 2.4575 5.4629 5.5774 5.4629 2.9139 0 5.7401-2.4855 5.5761-5.4629-0.13349-2.3983-0.34199-4.7768-0.67-7.1602 0.064839 0.46697 0.12841 0.92895 0.19324 1.3959-0.11442-0.91899-0.14366-1.8778-0.49201-2.7383-0.24791-0.87541-0.69924-1.635-1.3502-2.2763-0.48184-0.3798-0.93825-0.77828-1.4748-1.0759-0.80731-0.44829-1.7557-0.68239-2.7003-0.68239-1.3476 0-2.6889 0.47444-3.6119 1.4806" fill="#2C2C2C"/>
</g>
</g>
</svg>
