
<svg version="1.1" viewBox="0 0 800 1000" xmlns="http://www.w3.org/2000/svg">

<g fill="none" fill-rule="evenodd">
<g transform="translate(50 907)">
<g fill="#000">
<path d="m22.693 15.032l2.3e-5 -9.6e-6c2.1606-0.90615 5.1216-0.84773 8.2307-0.12339 6.0604 1.4122 11.038 6.5982 10.787 12.111-0.50471 11.135-14.347 19.192-22.734 11.213-4.0131-3.8181-4.7578-8.5288-2.6848-14.153 0.23055-0.62368 0.72944-1.7155 1.2122-2.4703 0.39441-0.6167 0.76486-1.0122 1.1812-1.1473 0.65411-0.21218 1.1388 0.23133 1.3899 1.0848 0.12147 0.41293-0.03733 0.75082-0.38661 1.1648-0.054567 0.064671-0.10586 0.12235-0.19469 0.2202-0.23445 0.25824-0.31328 0.35519-0.35316 0.43869-0.60431 1.2666-1.1141 2.8458-1.5137 4.5705-1.1714 5.057 1.1854 9.481 6.1753 10.955 5.3313 1.5755 11.444-1.4127 13.708-6.4426 2.5684-5.7026 2.2467-10.006-1.8357-13.271-4.6649-3.73-11.39-3.7439-14.824 0.52948l-0.2366 0.29442-0.34788-0.14711c-1.2626-0.53392-1.2412-1.6558-0.33029-2.7751 0.66513-0.8173 1.8063-1.6545 2.7563-2.053z" stroke="#000" stroke-linecap="round"/>
<g transform="translate(22.215 .000813)">
<path d="m7.9749 7.4513c0.084576-0.40553 0.18549-1.0138 0.34023-1.6033 0.33254-1.2775 0.56897-2.5528 0.56512-3.9079-9.6109e-4 -0.595-0.28833-1.5346 0.593-1.7495 0.75446-0.18393 1.557-0.28587 2.1346 0.51855 0.34119 0.47312 0.68142 0.97283 0.90439 1.5246 0.78425 1.9468-0.27103 5.755-1.8616 6.8652-1.2052 0.84098-2.6449 0.065372-2.6757-1.6476"/>
<path d="m3.8038 4.0916c-0.11821 0.96064-0.26815 1.9191-0.34599 2.8852-0.10188 1.2598-0.91304 1.8149-1.7329 2.2692-0.70833 0.39445-1.3763 0.22936-1.5493-0.85316-0.39405-2.4642-0.033638-4.9184 0.19126-7.356 0.10284-1.1246 1.4762-1.3717 2.4124-0.55733 0.82366 0.71799 1.0764 1.6487 1.0245 3.6121"/>
</g>
<path transform="translate(11.366 27.198) rotate(-2) translate(-11.366 -27.198)" d="m20.263 30.305c-3.7554 2.466-8.6763 6.0074-12.389 8.5185-1.079 0.73005-1.9079 1.0902-2.9024 1.9042-0.95097 0.7783-2.037 1.294-2.8313 0.59433-0.81671-0.71956-1.699-1.053-1.0116-2.2897 0.6116-1.1014 1.3293-1.1843 2.6283-1.7381 2.5657-1.094 6.4811-4.0403 8.7585-5.5361 0.69986-0.46048 1.9377-1.4298 2.5431-1.9742 1.5887-1.4297 1.2401-1.8356-0.54998-3.2076-3.155-2.4199-7.0528-5.1248-10.233-7.5215-0.81423-0.61257-1.6521-1.2052-2.4228-1.8545-2.1033-1.7695-1.7286-3.6775 1.1665-4.3971 0.6663-0.16573 1.1598 0.017832 1.5104 0.49929 2.9188 4.0142 8.184 7.1493 12.309 10.108 1.4084 1.0101 2.4911 2.0998 4.4701 2.5498 1.0678 0.2423 0.77818 1.2293 0.8913 2.3915 0.1529 0.74159-0.94355 1.3004-1.9368 1.9528z"/>
</g>
<path d="m66.129 20.732h-3.924v11.268h-1.494v-11.268h-3.924v-1.332h9.342v1.332zm10.052 5.49h-6.048v5.778h-1.494v-12.6h1.494v5.49h6.048v-5.49h1.494v12.6h-1.494v-5.778zm5.2105-6.822h6.858v1.332h-5.364v4.122h4.914v1.332h-4.914v4.482h5.454v1.332h-6.948v-12.6zm15.767 0c0.228-0.036 0.483-0.063 0.765-0.081 0.282-0.018 0.576-0.03 0.882-0.036 0.306-6e-3 0.606-0.012 0.9-0.018 0.294-6e-3 0.567-9e-3 0.819-9e-3 1.008 0 1.881 0.156 2.619 0.468s1.347 0.747 1.827 1.305 0.837 1.227 1.071 2.007 0.351 1.638 0.351 2.574c0 0.852-0.111 1.671-0.333 2.457s-0.573 1.482-1.053 2.088-1.104 1.092-1.872 1.458-1.698 0.549-2.79 0.549c-0.192 0-0.441-3e-3 -0.747-9e-3 -0.306-6e-3 -0.621-0.018-0.945-0.036-0.324-0.018-0.624-0.033-0.9-0.045-0.276-0.012-0.474-0.03-0.594-0.054v-12.618zm3.402 1.188h-0.513c-0.186 0-0.369 0.0059999-0.549 0.018s-0.345 0.024-0.495 0.036c-0.15 0.012-0.267 0.024-0.351 0.036v10.08c0.06 0.012 0.174 0.021 0.342 0.027 0.168 6e-3 0.342 0.012 0.522 0.018s0.354 0.012 0.522 0.018c0.168 6e-3 0.282 9e-3 0.342 9e-3 0.84 0 1.545-0.144 2.115-0.432s1.026-0.675 1.368-1.161 0.585-1.044 0.729-1.674c0.144-0.63 0.216-1.281 0.216-1.953 0-0.588-0.065999-1.179-0.198-1.773s-0.36-1.131-0.684-1.611-0.759-0.873-1.305-1.179-1.233-0.459-2.061-0.459zm8.5045 5.112c0-2.1 0.444-3.711 1.332-4.833 0.888-1.122 2.154-1.683 3.798-1.683 0.888 0 1.656 0.156 2.304 0.468 0.648 0.312 1.185 0.753 1.611 1.323 0.426 0.57 0.741 1.254 0.945 2.052s0.306 1.689 0.306 2.673c0 2.1-0.447 3.711-1.341 4.833-0.894 1.122-2.169 1.683-3.825 1.683-0.876 0-1.635-0.156-2.277-0.468-0.642-0.312-1.176-0.753-1.602-1.323-0.426-0.57-0.741-1.254-0.945-2.052s-0.306-1.689-0.306-2.673zm1.584 0c0 0.696 0.068999 1.356 0.207 1.98 0.138 0.624 0.351 1.173 0.639 1.647 0.288 0.474 0.657 0.852 1.107 1.134 0.45 0.282 0.981 0.423 1.593 0.423 1.116 0 1.992-0.423 2.628-1.269 0.636-0.846 0.954-2.151 0.954-3.915 0-0.684-0.069-1.341-0.207-1.971-0.138-0.63-0.354-1.182-0.648-1.656-0.294-0.474-0.666-0.852-1.116-1.134-0.45-0.282-0.987-0.423-1.611-0.423-1.104 0-1.971 0.423-2.601 1.269-0.63 0.846-0.945 2.151-0.945 3.915zm11.384 0c0-2.1 0.444-3.711 1.332-4.833 0.888-1.122 2.154-1.683 3.798-1.683 0.888 0 1.656 0.156 2.304 0.468s1.185 0.753 1.611 1.323c0.426 0.57 0.741 1.254 0.945 2.052s0.306 1.689 0.306 2.673c0 2.1-0.447 3.711-1.341 4.833-0.894 1.122-2.169 1.683-3.825 1.683-0.876 0-1.635-0.156-2.277-0.468s-1.176-0.753-1.602-1.323c-0.426-0.57-0.741-1.254-0.945-2.052s-0.306-1.689-0.306-2.673zm1.584 0c0 0.696 0.069 1.356 0.207 1.98 0.138 0.624 0.351 1.173 0.639 1.647 0.288 0.474 0.657 0.852 1.107 1.134s0.981 0.423 1.593 0.423c1.116 0 1.992-0.423 2.628-1.269s0.954-2.151 0.954-3.915c0-0.684-0.068999-1.341-0.207-1.971-0.138-0.63-0.354-1.182-0.648-1.656-0.294-0.474-0.666-0.852-1.116-1.134s-0.987-0.423-1.611-0.423c-1.104 0-1.971 0.423-2.601 1.269s-0.945 2.151-0.945 3.915zm11.906-6.3c0.228-0.036 0.483-0.063 0.765-0.081 0.282-0.018 0.576-0.03 0.882-0.036 0.306-6e-3 0.606-0.012 0.9-0.018 0.294-6e-3 0.567-9e-3 0.819-9e-3 1.008 0 1.881 0.156 2.619 0.468s1.347 0.747 1.827 1.305c0.48 0.558 0.837 1.227 1.071 2.007s0.351 1.638 0.351 2.574c0 0.852-0.111 1.671-0.333 2.457s-0.573 1.482-1.053 2.088c-0.48 0.606-1.104 1.092-1.872 1.458s-1.698 0.549-2.79 0.549c-0.192 0-0.441-3e-3 -0.747-9e-3 -0.306-6e-3 -0.621-0.018-0.945-0.036-0.324-0.018-0.624-0.033-0.9-0.045-0.276-0.012-0.474-0.03-0.594-0.054v-12.618zm3.402 1.188h-0.513c-0.186 0-0.369 0.0059999-0.549 0.018s-0.345 0.024-0.495 0.036-0.267 0.024-0.351 0.036v10.08c0.06 0.012 0.174 0.021 0.342 0.027s0.342 0.012 0.522 0.018 0.354 0.012 0.522 0.018 0.282 9e-3 0.342 9e-3c0.84 0 1.545-0.144 2.115-0.432s1.026-0.675 1.368-1.161 0.585-1.044 0.729-1.674c0.144-0.63 0.216-1.281 0.216-1.953 0-0.588-0.065999-1.179-0.198-1.773s-0.36-1.131-0.684-1.611c-0.324-0.48-0.759-0.873-1.305-1.179s-1.233-0.459-2.061-0.459zm16.478 11.412h-7.452v-12.6h1.494v11.268h5.958v1.332zm2.5105-12.6h6.858v1.332h-5.364v4.122h4.914v1.332h-4.914v4.482h5.454v1.332h-6.948v-12.6zm23.219 12.6h-7.452v-12.6h1.494v11.268h5.958v1.332zm2.8525-12.6h1.494v12.6h-1.494v-12.6zm13.148 2.88c0 0.3-0.047999 0.606-0.144 0.918-0.096 0.312-0.24 0.603-0.432 0.873-0.192 0.27-0.438 0.507-0.738 0.711-0.3 0.204-0.654 0.36-1.062 0.468v0.072c0.36 0.06 0.705 0.162 1.035 0.306 0.33 0.144 0.621 0.342 0.873 0.594 0.252 0.252 0.456 0.558 0.612 0.918 0.156 0.36 0.234 0.786 0.234 1.278 0 0.648-0.135 1.209-0.405 1.683-0.27 0.474-0.624 0.861-1.062 1.161-0.438 0.3-0.939 0.522-1.503 0.666-0.564 0.144-1.14 0.216-1.728 0.216h-0.72c-0.276 0-0.564-0.0089999-0.864-0.027-0.3-0.018-0.6-0.042-0.9-0.072-0.3-0.03-0.564-0.075-0.792-0.135v-12.402c0.444-0.072 0.96-0.132 1.548-0.18s1.23-0.072 1.926-0.072c0.468 0 0.945 0.039 1.431 0.117 0.486 0.078 0.927 0.228 1.323 0.45s0.723 0.531 0.981 0.927c0.258 0.396 0.387 0.906 0.387 1.53zm-4.176 8.568c0.384 0 0.756-0.045 1.116-0.135 0.36-0.09 0.678-0.234 0.954-0.432 0.276-0.198 0.495-0.441 0.657-0.729 0.162-0.288 0.243-0.63 0.243-1.026 0-0.492-0.098999-0.888-0.297-1.188s-0.456-0.534-0.774-0.702c-0.318-0.168-0.675-0.282-1.071-0.342s-0.792-0.09-1.188-0.09h-1.566v4.518c0.084001 0.024 0.204 0.042 0.36 0.054 0.156 0.012 0.324 0.024 0.504 0.036 0.18 0.012 0.366 0.021 0.558 0.027s0.36 9e-3 0.504 9e-3zm-0.99-5.904c0.204 0 0.45-0.0059999 0.738-0.018 0.288-0.012 0.528-0.03 0.72-0.054 0.288-0.096 0.558-0.213 0.81-0.351 0.252-0.138 0.477-0.3 0.675-0.486s0.354-0.402 0.468-0.648c0.114-0.246 0.171-0.513 0.171-0.801 0-0.396-0.074999-0.723-0.225-0.981-0.15-0.258-0.351-0.465-0.603-0.621-0.252-0.156-0.54-0.267-0.864-0.333-0.324-0.066-0.654-0.099-0.99-0.099-0.396 0-0.759 0.0089999-1.089 0.027-0.33 0.018-0.579 0.045-0.747 0.081v4.284h0.936zm8.7385-5.418c0.456-0.084 0.981-0.15 1.575-0.198s1.137-0.072 1.629-0.072c0.552 0 1.077 0.059999 1.575 0.18 0.498 0.12 0.936 0.318 1.314 0.594s0.681 0.636 0.909 1.08 0.342 0.984 0.342 1.62c0 0.984-0.27 1.782-0.81 2.394s-1.224 1.02-2.052 1.224l0.864 0.666 3.132 4.986h-1.746l-3.474-5.436-1.764-0.27v5.706h-1.494v-12.474zm3.24 1.026h-0.486c-0.168 0-0.33 0.0059999-0.486 0.018s-0.303 0.024-0.441 0.036-0.249 0.03-0.333 0.054v4.644h1.404c0.828 0 1.512-0.204 2.052-0.612s0.81-1.044 0.81-1.908c0-0.648-0.222-1.182-0.666-1.602s-1.062-0.63-1.854-0.63zm13.652 7.956h-4.644l-1.26 3.492h-1.476l4.77-12.798h0.684l4.788 12.798h-1.566l-1.296-3.492zm-4.158-1.296h3.708l-1.404-3.834-0.45-1.908h-0.018l-0.45 1.944-1.386 3.798zm9.3505-7.686c0.456-0.084 0.981-0.15 1.575-0.198s1.137-0.072 1.629-0.072c0.552 0 1.077 0.059999 1.575 0.18 0.498 0.12 0.936 0.318 1.314 0.594s0.681 0.636 0.909 1.08 0.342 0.984 0.342 1.62c0 0.984-0.27 1.782-0.81 2.394-0.54 0.612-1.224 1.02-2.052 1.224l0.864 0.666 3.132 4.986h-1.746l-3.474-5.436-1.764-0.27v5.706h-1.494v-12.474zm3.24 1.026h-0.486c-0.168 0-0.33 0.0059999-0.486 0.018s-0.303 0.024-0.441 0.036c-0.138 0.012-0.249 0.03-0.333 0.054v4.644h1.404c0.828 0 1.512-0.204 2.052-0.612 0.54-0.408 0.81-1.044 0.81-1.908 0-0.648-0.222-1.182-0.666-1.602s-1.062-0.63-1.854-0.63zm9.8185 6.444l-4.158-7.596h1.746l2.952 5.508 0.306 1.098h0.018l0.324-1.134 2.826-5.472h1.602l-4.122 7.578v5.022h-1.494v-5.004z" fill="#666" opacity=".73972"/>
</g>
<g transform="translate(309 921)" fill="#000" font-family="OpenSans-Regular, Open Sans" font-size="18" letter-spacing=".65455">
<text>
<tspan x="0" y="18">zebra</tspan>
</text>
</g>
<g transform="translate(151.5 253.44)">
<polygon points="429.2 243.93 496.9 176.09 364.21 61.144 304.64 176.09 71.759 152.54 71.759 373.9 134.04 269.65 318.18 292.67 379.1 176.09" fill="#fff"/>
<g transform="translate(.39782)" fill="#000">
<path d="m75.892 304.73c-0.40367 3.8469-0.81921 14.895-1.1714 18.742-0.027703 0.26386 0.40367 0.7801 0.65695 0.80304 0.33243 0.030592 0.78359-0.24091 1.0369-0.51624 2.5407-2.78 2.4735-13.698 3.5222-16.983 1.5514-4.8297 1.8403-12.306 1.4603-17.361-0.035618-0.50477-1.0092-1.2046-1.6542-1.3231-0.64112-0.12237-1.5711 0.1912-2.0777 0.63478-0.52635 0.45888-0.89836 1.2772-0.98147 1.977-0.44324 3.8584-0.77568 10.126-1.1477 13.992 0.11873 0.011472 0.23745 0.022944 0.35618 0.034416zm120.41-102.35c-0.039575 1.5602-0.39575 3.1319-0.78755 4.6576-0.74006 2.8756-5.7186 4.4167-8.0496 2.4474-1.1991-1.0172-2.3231-2.2217-3.1462-3.541-1.7374-2.7724-2.2004-5.9348-2.3706-9.1202-0.30077-5.5333-0.43533-11.074-0.82317-16.6-0.42346-5.9157-1.029-11.816-1.6186-17.72-0.14643-1.4416-1.8007-2.8298-3.3916-2.9368-8.5918-0.56978-17.172-0.56595-25.736 0.38622-2.054 0.22944-2.98 2.7609-1.682 4.5735 0.93398 1.3002 1.8442 2.6194 2.893 3.8278 4.2029 4.8527 8.4691 9.6594 12.676 14.508 1.3099 1.5105 2.6001 3.0516 3.728 4.6844 1.116 1.6137 0.62133 5.3307-0.7084 6.7188-1.6028 1.6673-4.6382 2.2562-6.7199 1.5296-2.3666-0.82598-4.4601-2.0191-6.1104-3.8355-3.5103-3.8661-7.0088-7.7436-10.428-11.682-4.476-5.1548-8.8768-10.367-13.293-15.568-1.6582-1.9579-3.7676-2.9636-6.3795-3.0133-8.1881-0.15678-16.376-0.29445-24.56-0.48947-8.3029-0.20267-9.1063 0.29827-10.361 8.0801-0.62925 3.8967-0.81129 7.8621-1.1833 11.797-0.55406 5.9043-1.1279 11.809-1.6265 17.717-0.45907 5.5142-0.83504 11.036-1.2387 16.558-0.027703 0.39005 0.055406 0.78774 0.071236 1.1854 0.10685 2.6233 1.8442 4.6959 4.3098 4.9483 2.4418 0.24856 4.8994 0.32886 7.3412 0.53536 6.5933 0.55448 12.909 2.13 18.81 5.063 1.0527 0.52006 1.9075 1.4416 2.7821 2.2485 1.029 0.94453 1.1279 3.1663 0.29682 4.4052-1.211 1.8164-3.1067 2.8412-5.1527 2.6883-2.4062-0.1759-4.7688-1.0019-7.1156-1.6634-5.1527-1.4455-10.412-2.0956-15.767-2.1529-3.732-0.03824-5.5168 1.3002-5.9165 4.5314-0.42741 3.5372-0.88649 7.0706-1.1833 10.619-0.20183 2.3556-0.22162 4.7379-0.17017 7.1088 0.087066 4.1184 2.0737 5.453 5.0696 5.3727 3.1383-0.080304 5.5326 0.99042 7.4362 3.346 1.2545 1.5602 2.7228 2.9674 3.8744 4.5926 1.5909 2.237 3.7636 2.9024 6.3716 2.6539 11.425-1.1013 22.871-1.5296 34.347-0.8451 0.8113 0.045888 1.6345-0.026768 2.4497-0.080304 1.7334-0.11854 3.1977-0.69214 3.7953-2.4206 0.38784-1.1166 0.45116-2.3556 0.94981-3.4187 2.7426-5.8354 7.4006-10.405 11.374-15.399 1.0764-1.3575 3.5697-1.8891 5.5247-2.2753 0.92211-0.18355 2.4339 0.60802 3.1106 1.4072 2.4101 2.868 2.7465 6.1299 0.81921 8.7493-2.8296 3.8508-5.9086 7.5409-8.8728 11.308-0.66487 0.8451-0.01583 2.7495 0.98147 2.9751 6.055 1.3575 12.158 1.3346 18.264 0.46653 0.67674-0.0956 1.488-0.81834 1.8086-1.4531 0.72027-1.4111 1.1873-2.9445 1.7176-4.4397 1.1912-3.3575 2.1371-6.8182 3.6251-10.046 0.78755-1.7093 2.3626-3.1701 3.8349-4.4703 1.6345-1.4531 5.1408-1.346 6.8901 0.007648 1.3733 1.0669 1.8996 2.6309 1.6938 4.237-0.24932 1.9349-0.50656 3.977-1.3376 5.7131-1.1912 2.4971-2.9365 4.7418-4.3849 7.1318-1.1239 1.8585-0.035618 4.0496 2.2756 4.302 4.4681 0.48947 8.948 0.87187 13.436 1.1472 2.6872 0.16826 4.6461-1.0554 5.869-3.4492 3.261-6.3861 6.6922-12.692 7.274-20.007 0.16622-2.1223 1.9352-3.5104 4.0129-3.7972 1.8719-0.25621 3.1304 0.77245 4.2306 1.9235 3.3204 3.4913 4.1594 7.6901 3.0038 12.164-0.98938 3.8278-2.3864 7.5562-3.5816 11.334-0.42741 1.3613 0.75985 3.5831 2.1094 3.736 5.2596 0.61184 10.531 1.1663 15.802 1.6749 1.3733 0.13002 3.0631-1.7514 2.9484-3.2198-0.14643-1.9617-0.33243-3.9272-0.62529-5.8775-0.69257-4.6959-1.5949-9.3726-2.1173-14.088-0.21371-1.9082 0.17017-3.9349 0.59759-5.8431 0.45907-2.0726 2.0065-3.3995 4.1317-3.9196 2.331-0.5736 3.9892 0.74186 5.1962 2.3288 0.91815 1.2122 1.8363 2.8106 1.8323 4.2332-0.03166 8.0075 2.4181 15.636 3.5618 23.456 0.45907 3.1242 2.4537 4.6347 6.0115 4.7724 10.23 0.40534 20.464 0.76098 30.699 1.0401 3.1027 0.084128 5.4337-1.3537 7.0088-3.9961 3.6845-6.1719 7.5193-12.256 11.085-18.485 1.1596-2.0305 1.868-4.3594 2.4497-6.6346 1.587-6.1758 1.9906-12.493 1.9669-18.845-0.007915-2.3709-0.027703-4.7571 0.27703-7.0973 0.6332-4.8297 5.6355-7.3383 10.084-5.128 1.0764 0.53536 1.9629 1.4111 3.0077 2.0191 1.8442 1.0707 3.8507 0.23326 4.9825-1.5984 2.4062-3.8814 0.32056-8.7417 3.071-12.547 0.3918-0.54301 0.24141-1.5334 0.15434-2.2982-0.087065-0.77245-0.43137-1.5181-0.62133-2.2829-0.27703-1.151-0.60154-2.2982-0.75985-3.4645-0.21766-1.5984 2.1054-3.629 3.9298-3.8775 2.2162-0.3021 3.9338 0.7801 5.8176 1.4837 1.678 0.63096 3.2966 0.25621 4.4681-1.0019 4.1079-4.4091 8.105-8.9099 12.201-13.327 1.0844-1.1663 2.2677-2.2868 3.5776-3.1969 3.7715-2.6118 9.5693-0.60802 10.974 3.8125 0.34035 1.0745 0.13851 2.3135 0.16226 3.4798 0.019788 1.0975-0.49469 2.325 1.029 2.9827 0.75589 0.32886 2.4141-0.26386 3.0948-1.2504 2.0302-2.9636 3.9061-6.0381 6.1302-8.864 2.794-3.5487 6.6962-4.2026 11.018-3.2083 1.8442 0.42064 3.3797 2.7533 3.1067 4.5391-0.30473 2.0076-1.025 3.8125-2.4141 5.3421-2.1529 2.3785-4.3414 4.7226-6.4627 7.1203-1.3851 1.5717-1.2466 3.6825 0.34826 5.3498 0.82712 0.86422 1.7334 1.6826 2.7109 2.3785 1.8046 1.2887 4.1871 1.2504 5.6237-0.091776 1.4682-1.3728 2.7149-2.9904 4.2781-4.2446 1.2308-0.98659 2.7544-1.6711 4.2227-2.3288 2.331-1.044 4.5907-0.28298 6.3875 2.0152 1.1714 1.4952 0.74402 2.9789-0.14643 4.3938-1.9075 3.0477-3.8705 6.0572-5.7938 9.0973-1.3653 2.1682-1.3812 3.6902 0.25328 5.3421 1.678 1.6979 3.4985 3.281 5.3941 4.7379 0.3918 0.29827 1.86 0.053536 2.0777-0.34034 2.7465-4.8374 5.1844-9.843 8.0259-14.627 7.9507-13.399 16.859-26.198 26.191-38.729 1.6582-2.2294 3.1858-4.585 4.4958-7.0209 1.4208-2.6386 1.2822-5.3574-0.6055-7.8354-2.9127-3.8278-6.0986-7.3459-9.9255-10.447-20.16-16.344-37.624-35.185-53.803-55.177-2.2677-2.8068-4.3295-5.8545-7.0246-8.2216-2.3508-2.0726-5.4693-3.3269-8.2158-4.998-0.68465-0.41682-1.1833-1.0975-1.8442-1.5602-1.8877-1.3116-2.9563-1.2849-4.2741 0.13002-8.2515 8.822-15.593 18.302-22.241 28.305-1.5474 2.3288-1.2743 4.4511 0.19788 6.6079 4.5037 6.604 9.0311 13.197 13.519 19.816 1.12 1.652 2.2123 3.3345 3.17 5.0744 1.773 3.2198 0.35618 7.2121-3.2096 9.0705-1.0685 0.56213-2.2439 0.97512-3.4114 1.3231-2.3112 0.68832-5.1804-1.0134-5.5366-3.3689-0.23349-1.522 0.45116-3.4492-0.28494-4.5812-3.6805-5.6786-7.6697-11.174-11.619-16.688-0.89044-1.2428-3.5103-1.1357-4.2821 0.11472-2.3033 3.7322-4.6541 7.4415-6.7516 11.281-0.74797 1.3652-0.79942 3.086 0.26911 4.52 0.71631 0.95982 1.4287 1.9426 2.2993 2.7686 4.3177 4.0955 5.8374 9.4338 7.0761 14.872 0.25328 1.1013 0.11873 2.3747-0.17413 3.4875-0.50656 1.912-1.2229 3.7858-3.3204 4.7112-2.1252 0.9407-4.7886 0.43594-6.6289-1.6214-1.3139-1.4569-2.4062-3.1395-3.3283-4.8603-0.54614-1.0172-0.55406-2.2982-0.82712-3.4531-0.28098-1.1548-0.55406-2.3135-0.89836-3.4492-0.59759-1.9655-3.4787-2.8374-4.9034-1.4111-3.4035 3.4072-6.6803 6.9406-10.096 10.344-1.6899 1.6787-3.3283 3.6863-5.4297 4.6385-4.2069 1.8967-7.2027 5.1853-10.828 7.7283-5.1052 3.5793-8.7026 8.2904-11.374 13.751-2.798 5.7207-5.5683 11.457-8.5404 17.093-3.5222 6.6844-7.2067 13.292-10.915 19.881-0.96168 1.6979-3.8388 1.5984-5.2991 0.099424-2.7228-2.7992-4.1079-6.0266-2.7624-9.7588 2.5487-7.0935 5.3387-14.111 8.018-21.162 0.69653-1.8393 1.9629-3.7284 1.868-5.541-0.18205-3.541 1.587-5.9922 3.5697-8.5466 1.7136-2.2141 3.4272-4.455 4.8519-6.845 1.0013-1.6826 1.5395-3.6366 2.2518-5.4836 0.35222-0.92158-0.68861-2.5774-1.5988-2.7609-5.6989-1.1396-11.433-0.35563-17.14-0.28298-6.5458 0.080304-13.088 0.51624-19.621 0.92923-2.521 0.16061-4.6461 2.26-4.8559 4.6117-0.95377 10.631-2.141 21.258-2.6793 31.911-0.41158 8.2216-3.3599 15.395-7.8359 22.152-0.64112 0.96747-1.6542 1.717-2.5487 2.5085-1.8957 1.6864-5.0063 0.62714-5.6711-1.8661-0.83108-3.1357-0.94189-6.2714 0.087066-9.3612 3.0433-9.1738 3.8269-18.562 3.2016-28.129-0.098938-1.4837 0.19392-3.3269 1.0606-4.4703 2.8059-3.694 3.3362-7.9883 4.1119-12.244 0.36409-2-1.2704-4.0687-3.3679-4.084-8.5958-0.068832-17.192-0.05736-25.787-0.030592-0.79546 0.003824-1.6622 0.2065-2.3666 0.56213-1.0606 0.53536-2.1727 1.2007-2.2281 2.5544-0.075194 1.9655-0.16622 3.9425-0.023746 5.9004 0.50656 7.1012 1.1081 14.195 1.7532 22.279 0 3.3881 0.071235 7.736-0.031661 12.084zm-175.66 45.307c-2.4497 2.6462-4.7886 5.3842-7.274 7.9922-0.81921 0.8604-1.9352 1.4531-2.9286 2.1529-1.3179 0.93306-3.3362 1.0975-4.5749 0.17208-1.6068-1.2007-3.1462-2.5009-4.5868-3.8852-0.97355-0.9407-1.1042-3.4301-0.35222-4.4932 3.2373-4.5735 6.5022-9.1241 9.7632-13.682 9.787-13.659 19.641-27.273 29.341-40.986 8.576-12.122 18.122-23.468 28.617-34.064 2.9088-2.9368 5.2675-5.8851 5.4891-10.202 0.13851-2.673 2.3904-4.1299 4.9311-4.585 2.3904-0.42829 4.8876-0.5736 7.3254-0.48947 5.7226 0.19885 11.469 0.3671 17.152 0.99042 5.7384 0.63096 11.461 0.53154 17.176 0.21797 10.214-0.56213 20.405-1.7437 30.623-2.0152 18.794-0.49712 37.533-2.1873 56.387-1.6099 11.421 0.34798 22.89-0.96365 34.343-1.2696 13.088-0.35563 26.167-1.2504 39.275-0.2868 5.7147 0.42064 11.461 0.38622 17.188 0.69214 3.5657 0.18738 6.2806-1.1854 8.7105-3.564 4.3335-4.2408 8.3662-8.6537 11.406-13.904 4.3968-7.5983 8.7936-15.2 13.59-22.562 4.3572-6.6805 9.2052-13.059 13.919-19.522 1.4089-1.9349 3.1462-3.6443 4.6224-5.541 2.1529-2.7648 2.6476-5.6901 0.73214-8.8296-5.4337-8.9099-8.9915-18.588-12.304-28.363-0.90628-2.6577-1.2308-5.3842-0.74797-8.1948 0.38784-2.2868 3.1739-4.1605 5.4456-3.6404 3.3006 0.75715 6.1223 2.3556 8.3702 4.7226 3.8665 4.0802 7.5272 8.3516 11.366 12.459 0.36409 0.38622 1.3931 0.29062 2.0935 0.22562 1.0369-1.6099 1.1714-2.3976 1.3416-3.1739 0.4195-1.9349 0.9696-3.8546 1.2308-5.8125 1.4801-11.139 5.8097-21.384 10.44-31.54 1.0725-2.3441 3.0513-3.5869 5.5366-4.2676 3.6488-1.0057 7.274-1.0592 10.875 0.16061 5.0656 1.717 8.1248 5.5677 8.3227 10.596 0.41158 10.386-1.3376 20.508-4.381 30.424-1.6305 5.3001-3.6014 10.508-5.4574 15.743-0.58176 1.629-0.51448 3.2772 0.7638 4.3823 9.5377 8.2369 16.396 18.715 24.988 27.735 2.2123 2.3288 4.2227 4.8374 6.4508 7.1624 1.116 1.1625 2.6041 1.6596 4.3137 1.9464 7.0286 1.1663 8.5166 2.6118 8.8213 8.7799 0.11873 2.5162 0.62133 4.6462 2.6159 6.3478 6.4429 5.5027 12.716 11.2 19.356 16.466 4.476 3.5487 8.576 7.4262 12.027 11.824 2.9879 3.8011 6.0392 7.43 9.8068 10.535 1.1991 0.99042 2.2123 2.39 2.8336 3.8011 3.2412 7.3612 3.1502 7.4377 6.5814 10.218 2.1015 1.7055 2.2637 6.8182 0.32452 8.7034-0.86274 0.83746-1.8046 1.6137-2.7821 2.325-8.8847 6.4702-16.721 13.881-23.021 22.829-2.521 3.5716-5.8017 6.6423-8.7462 9.9348-1.9906 2.2256-4.4641 3.3384-7.5589 3.2236-2.2518-0.080304-4.005 1.0478-4.9905 2.8833-2.0737 3.8508-3.9338 7.8048-5.8809 11.721-1.7611 3.5525-3.4668 7.1356-5.2952 10.657-0.64904 1.2543-2.6793 1.7667-4.2939 1.5793-4.2266-0.49712-7.8518-2.2676-10.974-4.9291-6.1342-5.2351-12.193-10.554-18.201-15.919-2.1054-1.8776-3.819-4.1643-5.964-5.9807-6.2569-5.2924-11.386-11.319-14.235-18.986-0.36805-0.99042-2.054-0.956-3.0671-0.015296-6.8228 6.3746-12.415 13.736-17.192 21.56-6.6566 10.891-14.049 21.346-20.365 32.431-0.98543 1.7323-2.1569 3.3651-3.17 5.0821-2.054 3.4684-3.4589 7.0859-3.5182 11.204-0.087066 6.367-1.5672 12.55-3.1423 18.711-1.211 4.7303-1.3931 9.3382 1.4564 13.736 0.81921 1.2657 1.2387 2.9445 1.3258 4.4588 1.0013 16.986 1.9115 33.98 2.8098 50.97 0.10685 1.9732 0.26911 3.9884-0.01583 5.931-0.64508 4.432-0.067278 8.6881 1.5316 12.822 1.0923 2.8221 0.57384 5.3957-0.65695 8.0036-0.85087 1.7935-1.4682 3.6863-2.3429 5.4645-0.93398 1.9158-2.6001 2.9827-4.8005 3.151-1.6226 0.12237-3.91-1.5831-4.6303-3.3498-2.4576-6.0075-3.0394-12.248-2.6515-18.65 0.29286-4.7341 0.46699-9.4797 0.54614-14.225 0.019788-1.1243-0.51052-2.2676-0.88253-3.3728-1.2348-0.5583-1.9075-0.478-1.9788-0.29062-2.1964 5.9463-4.4958 11.862-6.3954 17.9-0.55406 1.7743-0.18205 3.9272 0.17017 5.8354 0.85483 4.6117-0.77963 8.5811-3.0394 12.42-1.682 2.8565-6.1817 2.998-8.3306 0.32504-1.2743-1.5908-2.4022-3.2848-2.236-5.3727 0.34826-4.3441 0.21371-8.6614 0.04749-13.009-0.1029-2.6768 0.79942-5.4607 1.6186-8.0878 6.0194-19.399 8.6551-39.414 11.726-59.348 0.087066-0.5583-0.6332-1.7208-1.1239-1.8049-6.0155-1.0287-11.892-2.7877-18.129-2.6921-6.1381 0.091776-12.28-0.32504-18.426-0.45888-6.1421-0.13766-12.272-0.14531-18.359-1.2734-2.794-0.51624-5.7147-0.35946-8.572-0.59272-7.3373-0.59654-14.678-1.2428-22.016-1.8661-2.4458-0.21032-4.8955-0.4627-7.3452-0.61566-24.117-1.4952-48.258-2.52-72.423-2.9789-5.7305-0.1109-11.453-0.53536-17.184-0.69979-5.3189-0.15678-10.65-0.34034-15.961-0.18738-6.8347 0.19885-8.9322 2.6806-7.9863 8.8984 0.17809 1.174 0.49073 2.3288 0.7084 3.4951 0.73214 3.9158-0.60154 32.317 2.703 42.309 0.49074 1.4914 0.87462 3.0974 0.87857 4.6538 0.01583 9.0896 0.66487 22.998-0.58176 32.064-0.33639 2.4397-1.3495 4.52-3.1265 6.2828-1.0013 0.99806-3.2887 1.652-4.4681 0.91776-0.97751-0.60802-2.2835-1.5334-2.4181-2.4512-0.50261-3.5066-1.0725-7.1088-0.72819-10.592 0.55406-5.606 0.071236-16.004-1.0567-21.323-1.6503-7.801-2.2993-15.652-3.2214-23.506-0.18205-1.5564-0.63321-3.086-1.0448-4.6041-1.5237-0.54301-2.4655-0.26386-2.6515 0.21414-3.5539 9.2732-11.532 47.208-15.715 52.638-2.7386 3.5601-6.1421 6.3249-10.214 8.3554-1.488 0.74186-4.7609-0.3977-5.1765-1.9502-0.81525-3.0516-1.6186-6.1108-2.2479-9.2005-0.22162-1.1051-0.055406-2.3403 0.17413-3.4684 3.1265-15.124 0.86615-37.514 1.6497-52.955 0.043533-0.78774 0.023745-1.5908 0.1583-2.3671 2.8455-16.084 1.9788-32.363 2.6872-48.553 0.1029-2.4359 0.28494-4.6615 2.2083-6.5276 0.82712-0.80304 1.6463-1.9388 1.8046-3.0171 2.4101-16.458 3.7874-32.971 2.327-49.601-1.6503-1.1243-2.2677-0.80686-2.7861 0.05736-2.05 3.411-4.2029 6.7685-6.2133 10.202-7.9349 13.564-18.771 24.887-29.737 36.118-2.24 1.7017-4.2583 0.77245-4.5591-1.0287-0.32056-1.9388-0.54614-3.8967-0.81921-5.8545 0.23745-0.48947 1.959-0.48182 0.52635-1.5181-0.075193 0.59272-0.14643 1.1816-0.22558 1.7743-1.8877-0.24856-2.9998 0.95982-4.0723 2.1185z"/>
<path d="m340.91 78.89c0.26911 3.9578-1.8363 6.5276-4.0169 6.9559-2.4774 0.48182-4.8915 0.2065-7.1711-0.66538-4.5591-1.7476-9.1182-3.1013-14.156-2.9483-3.2214 0.0956-5.1646-2.1606-5.4337-5.2236-0.37597-4.2255 1.2941-6.6958 5.2754-8.1681 3.5578-1.3231 7.0484-1.6405 10.618-0.068832 3.3243 1.4569 6.8149 2.608 10.005 4.2982 2.9602 1.5678 4.6897 4.2293 4.8796 5.8201"/>
<path d="m315.87 106.97c-5.687-0.56595-10.598-0.27533-15.335-1.759-3.1383-0.98277-4.4008-3.258-5.1092-6.019-0.41554-1.6328 0.99334-4.4664 2.4062-5.0477 6.5299-2.6959 13.159-4.0267 20.092-1.3919 3.265 1.239 5.2794 3.5028 6.2212 6.7417 1.0685 3.6749-1.6384 7.4109-5.4733 7.4721-1.2189 0.01912-2.4339 0.003824-2.8019 0.003824"/>
<path d="m306.72 112.67c2.2914-0.049713 5.0023 2.0726 6.617 5.5066 0.42346 0.90246 0.3443 2.3785-0.14247 3.2619-1.3416 2.4397-3.2491 4.2944-6.245 5.0783-4.4601 1.1663-8.8016 0.9407-13.076-0.4627-2.0975-0.69214-2.889-2.5659-3.2412-4.562-0.40367-2.2485 0.8667-5.2962 2.608-6.0916 3.6766-1.6826 7.5233-2.7303 13.479-2.7303"/>
<path d="m93.245 181.3c0.039575-2.2447 1.302-3.9043 3.2096-4.4588 2.8257-0.82598 5.588-0.91776 8.39 0.13384 15.878 5.9693 29.341 15.353 41.139 27.108 8.295 8.2637 14.655 17.904 20.999 27.556 0.65299 0.99042 1.1042 2.1108 1.5751 3.2007 0.93002 2.1414-0.7361 5.824-3.2729 6.9597-0.64904 0.29445-1.7651 0.33269-2.3231-0.022944-1.3218-0.84893-2.6159-1.8623-3.6132-3.0516-4.6145-5.518-9.0311-11.197-13.693-16.676-10.491-12.344-23.183-22.156-37.656-29.8-2.8257-1.4914-5.9323-2.5697-9.0074-3.5257-4.6778-1.4531-5.8255-2.7533-5.7463-7.4224"/>
<path d="m398.44 120.14c0.21766-2.9024 0.30473-4.8794 0.52635-6.8411 0.33639-3.0477 4.5749-5.04 7.6064-3.6252 3.1423 1.4646 5.7147 5.3689 5.2833 8.6537-0.41158 3.1127-1.1516 6.2025-1.9748 9.2426-0.42741 1.587-1.8205 2.5315-3.4351 3.1089-1.9867 0.71509-4.3691 0.21414-5.4456-1.4072-0.86274-1.3116-1.773-2.7074-2.1252-4.1873-0.4472-1.8929-0.35618-3.9081-0.43533-4.9444"/>
</g>
</g>
</g>
</svg>
